<svg data-v-423bf9ae="" xmlns="http://www.w3.org/2000/svg" viewBox="0 0 309 90" class="iconLeft"><!----><!----><!----><g data-v-423bf9ae="" id="fe23a811-4911-43ac-b4d5-59e26a1b2741" fill="white" transform="matrix(4.9301560907032815,0,0,4.9301560907032815,135.22006872096904,-12.658175850255105)"><path d="M4.87 7.74L4.87 7.74Q5.61 7.74 6.21 8.15L6.21 8.15L6.21 8.15Q6.80 8.55 7.14 9.34L7.14 9.34L7.14 9.34Q7.48 10.12 7.48 11.21L7.48 11.21L7.48 11.21Q7.48 12.29 7.13 13.23L7.13 13.23L7.13 13.23Q6.79 14.17 6.07 14.76L6.07 14.76L6.07 14.76Q5.35 15.34 4.27 15.34L4.27 15.34L4.27 15.34Q3.74 15.34 3.30 15.13L3.30 15.13L3.30 15.13Q2.87 14.92 2.63 14.59L2.63 14.59L2.63 16.38L2.63 16.38Q2.63 16.95 2.97 17.17L2.97 17.17L2.97 17.17Q3.30 17.39 3.98 17.39L3.98 17.39L3.98 17.68L3.65 17.67L3.65 17.67Q2.35 17.63 1.96 17.63L1.96 17.63L1.96 17.63Q1.62 17.63 0.45 17.68L0.45 17.68L0.45 17.39L0.45 17.39Q0.97 17.39 1.17 17.20L1.17 17.20L1.17 17.20Q1.37 17.01 1.37 16.52L1.37 16.52L1.37 9.46L1.37 9.46Q1.37 8.82 1.13 8.53L1.13 8.53L1.13 8.53Q0.90 8.23 0.31 8.23L0.31 8.23L0.31 7.94L0.31 7.94Q0.74 7.98 1.18 7.98L1.18 7.98L1.18 7.98Q2.06 7.98 2.63 7.78L2.63 7.78L2.63 9.27L2.63 9.27Q2.94 8.54 3.53 8.14L3.53 8.14L3.53 8.14Q4.12 7.74 4.87 7.74L4.87 7.74ZM4.12 15.02L4.12 15.02Q6.12 15.02 6.12 11.41L6.12 11.41L6.12 11.41Q6.12 8.16 4.49 8.16L4.49 8.16L4.49 8.16Q3.86 8.16 3.36 8.62L3.36 8.62L3.36 8.62Q2.86 9.07 2.63 9.93L2.63 9.93L2.63 14.13L2.63 14.13Q2.83 14.53 3.21 14.78L3.21 14.78L3.21 14.78Q3.58 15.02 4.12 15.02L4.12 15.02ZM14.34 13.36L14.62 13.47L14.62 13.47Q14.36 14.24 13.67 14.79L13.67 14.79L13.67 14.79Q12.98 15.34 12.00 15.34L12.00 15.34L12.00 15.34Q11.00 15.34 10.28 14.89L10.28 14.89L10.28 14.89Q9.55 14.43 9.16 13.62L9.16 13.62L9.16 13.62Q8.78 12.80 8.78 11.72L8.78 11.72L8.78 11.72Q8.78 10.50 9.17 9.60L9.17 9.60L9.17 9.60Q9.56 8.71 10.28 8.22L10.28 8.22L10.28 8.22Q10.99 7.74 11.94 7.74L11.94 7.74L11.94 7.74Q13.20 7.74 13.88 8.50L13.88 8.50L13.88 8.50Q14.56 9.27 14.56 10.82L14.56 10.82L10.18 10.82L10.18 10.82Q10.14 11.21 10.14 11.72L10.14 11.72L10.14 11.72Q10.14 12.64 10.44 13.33L10.44 13.33L10.44 13.33Q10.74 14.01 11.23 14.38L11.23 14.38L11.23 14.38Q11.73 14.76 12.28 14.76L12.28 14.76L12.28 14.76Q12.95 14.76 13.47 14.43L13.47 14.43L13.47 14.43Q13.99 14.11 14.34 13.36L14.34 13.36ZM11.89 8.01L11.89 8.01Q11.23 8.01 10.75 8.65L10.75 8.65L10.75 8.65Q10.28 9.30 10.16 10.56L10.16 10.56L13.22 10.56L13.22 10.56Q13.24 9.46 12.90 8.74L12.90 8.74L12.90 8.74Q12.56 8.01 11.89 8.01L11.89 8.01ZM17.88 5.61L17.88 7.95L19.95 7.95L19.95 8.23L17.88 8.23L17.88 13.65L17.88 13.65Q17.88 14.28 18.11 14.56L18.11 14.56L18.11 14.56Q18.34 14.84 18.77 14.84L18.77 14.84L18.77 14.84Q19.21 14.84 19.52 14.49L19.52 14.49L19.52 14.49Q19.82 14.14 20.03 13.34L20.03 13.34L20.31 13.41L20.31 13.41Q19.96 15.34 18.49 15.34L18.49 15.34L18.49 15.34Q18.02 15.34 17.71 15.23L17.71 15.23L17.71 15.23Q17.40 15.12 17.16 14.88L17.16 14.88L17.16 14.88Q16.86 14.57 16.74 14.13L16.74 14.13L16.74 14.13Q16.62 13.68 16.62 12.92L16.62 12.92L16.62 8.23L15.27 8.23L15.27 7.95L16.62 7.95L16.62 5.81L16.62 5.81Q17.40 5.78 17.88 5.61L17.88 5.61ZM25.05 7.74L25.05 7.74Q25.79 7.74 26.38 8.15L26.38 8.15L26.38 8.15Q26.98 8.55 27.31 9.34L27.31 9.34L27.31 9.34Q27.65 10.12 27.65 11.21L27.65 11.21L27.65 11.21Q27.65 12.29 27.31 13.23L27.31 13.23L27.31 13.23Q26.96 14.17 26.24 14.76L26.24 14.76L26.24 14.76Q25.52 15.34 24.44 15.34L24.44 15.34L24.44 15.34Q23.91 15.34 23.48 15.13L23.48 15.13L23.48 15.13Q23.04 14.92 22.81 14.59L22.81 14.59L22.81 16.38L22.81 16.38Q22.81 16.95 23.14 17.17L23.14 17.17L23.14 17.17Q23.48 17.39 24.15 17.39L24.15 17.39L24.15 17.68L23.83 17.67L23.83 17.67Q22.53 17.63 22.13 17.63L22.13 17.63L22.13 17.63Q21.80 17.63 20.62 17.68L20.62 17.68L20.62 17.39L20.62 17.39Q21.14 17.39 21.34 17.20L21.34 17.20L21.34 17.20Q21.55 17.01 21.55 16.52L21.55 16.52L21.55 9.46L21.55 9.46Q21.55 8.82 21.31 8.53L21.31 8.53L21.31 8.53Q21.07 8.23 20.48 8.23L20.48 8.23L20.48 7.94L20.48 7.94Q20.92 7.98 21.35 7.98L21.35 7.98L21.35 7.98Q22.23 7.98 22.81 7.78L22.81 7.78L22.81 9.27L22.81 9.27Q23.11 8.54 23.70 8.14L23.70 8.14L23.70 8.14Q24.29 7.74 25.05 7.74L25.05 7.74ZM24.29 15.02L24.29 15.02Q26.29 15.02 26.29 11.41L26.29 11.41L26.29 11.41Q26.29 8.16 24.67 8.16L24.67 8.16L24.67 8.16Q24.04 8.16 23.53 8.62L23.53 8.62L23.53 8.62Q23.03 9.07 22.81 9.93L22.81 9.93L22.81 14.13L22.81 14.13Q23.00 14.53 23.38 14.78L23.38 14.78L23.38 14.78Q23.76 15.02 24.29 15.02L24.29 15.02ZM34.16 7.98L34.16 7.98Q34.78 7.98 35.22 7.94L35.22 7.94L35.22 8.22L35.22 8.22Q34.94 8.25 34.73 8.47L34.73 8.47L34.73 8.47Q34.51 8.69 34.31 9.20L34.31 9.20L32.02 15.22L31.54 16.44L31.54 16.44Q31.28 17.12 30.94 17.42L30.94 17.42L30.94 17.42Q30.73 17.61 30.44 17.70L30.44 17.70L30.44 17.70Q30.14 17.78 29.85 17.78L29.85 17.78L29.85 17.78Q29.43 17.78 29.16 17.56L29.16 17.56L29.16 17.56Q28.90 17.33 28.90 16.94L28.90 16.94L28.90 16.94Q28.90 16.60 29.09 16.40L29.09 16.40L29.09 16.40Q29.29 16.20 29.64 16.20L29.64 16.20L29.64 16.20Q29.95 16.20 30.15 16.37L30.15 16.37L30.15 16.37Q30.35 16.55 30.35 16.86L30.35 16.86L30.35 16.86Q30.35 17.28 29.97 17.49L29.97 17.49L29.97 17.49Q30.00 17.50 30.06 17.50L30.06 17.50L30.06 17.50Q30.83 17.50 31.25 16.41L31.25 16.41L31.74 15.13L29.20 9.02L29.20 9.02Q28.97 8.54 28.73 8.39L28.73 8.39L28.73 8.39Q28.49 8.23 28.25 8.23L28.25 8.23L28.25 7.94L28.25 7.94Q28.85 8.02 29.62 8.02L29.62 8.02L29.62 8.02Q30.32 8.02 31.44 7.94L31.44 7.94L31.44 8.23L31.44 8.23Q30.94 8.23 30.71 8.32L30.71 8.32L30.71 8.32Q30.48 8.40 30.48 8.72L30.48 8.72L30.48 8.72Q30.48 9.02 30.65 9.41L30.65 9.41L32.33 13.58L33.88 9.53L33.88 9.53Q34.03 9.11 34.03 8.89L34.03 8.89L34.03 8.89Q34.03 8.57 33.78 8.41L33.78 8.41L33.78 8.41Q33.53 8.26 32.98 8.22L32.98 8.22L32.98 7.94L32.98 7.94Q33.73 7.98 34.16 7.98L34.16 7.98Z"></path></g><!----><g data-v-423bf9ae="" id="69df73bc-e515-4424-8b2a-cec605162d75" transform="matrix(1.2796269143317265,0,0,1.2796269143317265,-5.599409718281237,-14.339476990514186)" stroke="none" fill="white"><path d="M39.549 42.217c-2.092-.682-11.059-3.607-15.508-5.098-2.256 5.819-14.174 37.303-10.067 42.717 4.528 5.971 20.792-1.028 25.527 0 4.736 1.031 4.152-2.26 4.152-2.26l-4.104-35.359zM51.475 24.534c-1.242-1.697-8.308-1.338-8.308-1.338s-1.793-3.847-2.948-4.559c-1.35-.829-5.121-.682-5.121-.682s.351-5.571-1.349-5.986c-3.244-.793-7.559 16.508-8.916 22.333 3.652 1.481 10.491 4.122 14.351 4.765l-.038-.328s.134-2.813 2.011-3.484c1.262-.451 7.505-1.732 9.249-3.484 1.287-1.296 2.152-5.761 1.069-7.237zM57.232 52.332c2.788-.841 7.129-2.381 10.711-4.673-.139-1.864.462-3.943.717-5.211.401-2.01-.134-3.158-1.207-6.032-.193-.517-1.067-6.255-2.813-6.433-1.722-.175-4.021 5.628-4.021 5.628s-4.96 0-5.553 2.212c-.713 2.657-3.454 4.102-3.561 4.49-.412 1.496.313 5.559 2.697 6.179 1.454.379 2.507 2.27 3.03 3.84zM69.159 50.501a3.37 3.37 0 0 1-.573-.703c-1.927 1.046-7.719 4.114-10.932 4.993 1.313 6.186.563 21.806.602 22.475.054.992-.593 1.609-.113 2.4.732 1.21 2.17 1.324 3.867 1.017 1.698-.312 14.337 3.192 22.256-.12 9.715-5.851-6.492-26.683-15.107-30.062z"></path><path d="M13.561 77.88C6.812 72.69 6.75 60.746 5.025 64.354c-1.613 3.374-.036 11.516 2.979 15.091 2.77 3.284 8.482 3.127 8.709 1.068M87.215 73.905c2.652 1.669 7.471-5.442 3.475-7.84-2.516-1.509-2.794-1.968-3.504-3.139-1.708-2.808.529-10.66 4.837-11.671 3.202-.75 3.41 2.191 1.651 3.151-4.177 2.483-4.527 6.651-1.684 8.683 1.607 1.149 2.74 1.968 3.44 4.529.989 3.612-1.979 9.358-7.682 11.165 0 0-3.172.713-3.757-.586"></path></g><!----></svg>