<svg width="154" height="157" xmlns="http://www.w3.org/2000/svg" xmlns:xlink="http://www.w3.org/1999/xlink" overflow="hidden"><defs><clipPath id="clip0"><rect x="504" y="170" width="154" height="157"/></clipPath><clipPath id="clip1"><rect x="504" y="171" width="153" height="155"/></clipPath><clipPath id="clip2"><rect x="504" y="171" width="153" height="155"/></clipPath></defs><g clip-path="url(#clip0)" transform="translate(-504 -170)"><g clip-path="url(#clip1)"><g clip-path="url(#clip2)"><path d="M353.579 646.677C328.283 644.952 304.768 629.084 293.27 606.087 284.071 587.747 283.323 563.715 291.315 545.03 299.939 524.85 315.807 510.247 336.389 503.405 339.666 502.313 343.576 501.22 345.128 501.048L347.83 500.645 347.83 526.287 347.83 551.929 338.344 551.929 328.858 551.929 328.858 562.565 328.858 573.201 338.344 573.201 347.83 573.201 347.83 583.837C347.83 595.623 348.29 598.843 350.877 604.247 354.039 610.974 360.076 615.631 367.895 617.47 371.057 618.218 388.075 617.988 390.835 617.125 392.099 616.78 392.099 616.608 392.099 607.639L392.099 598.498 386.293 598.498C379.336 598.498 376.404 597.75 373.989 595.278 371.517 592.806 370.827 589.701 370.827 580.733L370.827 573.201 381.176 573.201 391.524 573.201 391.237 571.936C391.065 571.189 390.432 567.107 389.8 562.852 389.167 558.598 388.477 554.401 388.305 553.539L387.96 551.929 379.394 551.929 370.827 551.929 370.827 526.287 370.827 500.645 373.587 501.048C378.244 501.738 386.983 504.785 392.847 507.774 412.337 517.778 426.307 535.658 431.252 556.988 432.919 564.232 433.322 578.088 432.114 585.274 429.585 599.82 422.915 613.216 412.969 623.794 397.619 640.122 376.461 648.286 353.579 646.677Z" fill="#EDE0D4" transform="matrix(1.00527 0 0 -1 219.276 822.01)"/><path d="M133.038 645.872C106.131 641.387 82.9618 621.035 75.0853 594.933 67.0938 568.602 74.0504 540.545 93.4254 521.17 122.229 492.366 168.741 492.366 197.487 521.17 211.515 535.141 219.047 553.366 219.047 573.201 219.047 605.052 199.039 632.936 168.971 642.997 165.694 644.147 160.519 645.412 157.53 645.929 150.918 646.964 139.42 646.964 133.038 645.872ZM170.81 615.286C178.687 612.698 184.666 606.662 187.426 598.555 188.518 595.278 188.576 593.726 188.576 573.546 188.576 554.113 188.461 551.699 187.483 548.537 185.471 542.04 181.332 536.866 175.352 533.359 170.178 530.369 167.706 530.082 145.456 530.082 133.785 530.082 123.954 530.369 122.517 530.714 113.663 532.726 106.131 539.74 103.429 548.537 102.452 551.699 102.337 553.998 102.337 573.086 102.337 589.126 102.567 594.876 103.142 597.118 105.441 605.857 112.398 612.986 120.734 615.401 125.621 616.78 126.081 616.78 147.181 616.665 165.866 616.55 167.246 616.493 170.81 615.286Z" fill="#EDE0D4" transform="matrix(1.00527 0 0 -1 219.276 822.01)"/><path d="M122.574 607.179C116.767 605.167 112.168 599.993 110.961 594.186 110.558 592.116 110.386 584.527 110.501 571.649L110.673 552.216 112.57 548.364C114.583 544.225 117.112 541.81 121.367 539.855 123.724 538.82 125.219 538.706 145.514 538.706L167.131 538.706 170.638 540.488C174.49 542.385 176.387 544.282 178.687 548.709L180.239 551.641 180.239 573.201 180.239 594.761 178.629 598.038C176.905 601.602 173.858 604.649 170.063 606.662 167.648 607.984 167.246 607.984 146.606 608.099 127.404 608.271 125.334 608.156 122.574 607.179ZM170.695 600.51C175.352 598.153 173.57 591.024 168.338 591.024 164.141 591.024 161.784 595.566 164.199 598.958 165.809 601.257 168.166 601.832 170.695 600.51ZM153.218 593.266C164.774 588.954 170.351 575.731 165.234 564.635 163.279 560.323 158.795 555.838 154.425 553.826 151.435 552.504 150.171 552.216 145.744 552.216 141.029 552.216 140.224 552.389 136.717 554.113 121.942 561.415 120.274 581.48 133.728 590.794 135.338 591.886 137.81 593.151 139.19 593.611 143.099 594.818 149.481 594.703 153.218 593.266Z" fill="#EDE0D4" transform="matrix(1.00527 0 0 -1 219.276 822.01)"/><path d="M142.869 586.482C135.51 584.585 130.853 576.996 132.75 569.981 135.568 559.575 149.021 556.471 155.977 564.635 163.049 572.856 157.932 585.562 147.066 586.712 145.686 586.827 143.846 586.712 142.869 586.482Z" fill="#EDE0D4" transform="matrix(1.00527 0 0 -1 219.276 822.01)"/><path d="M560.61 645.872C557.966 645.412 553.079 644.147 549.744 643.055 535.371 638.225 523.527 629.659 514.329 617.47 504.555 604.477 499.611 589.586 499.611 573.201 499.611 553.366 507.142 535.141 521.17 521.17 549.917 492.366 596.428 492.366 625.232 521.17 644.607 540.545 651.563 568.602 643.572 594.933 636.673 617.7 618.045 636.385 595.163 643.572 585.102 646.734 571.246 647.654 560.61 645.872ZM589.069 617.643C591.369 607.007 598.095 599.993 608.156 597.693L611.434 596.945 611.606 589.414C611.779 580.503 611.951 580.733 605.914 581.767 600.28 582.687 596.141 584.7 592.174 588.494L588.724 591.771 588.724 572.224C588.724 561.473 588.494 551.239 588.149 549.572 585.504 535.198 570.671 524.735 556.413 527.092 544.397 529.104 535.026 538.303 532.899 550.204 530.886 561.645 536.866 573.891 547.099 579.353 551.124 581.537 556.298 582.975 559.805 582.975L562.277 582.975 562.277 575.961 562.277 568.889 559.46 568.774C552.446 568.544 546.639 562.392 546.582 555.091 546.524 546.812 552.504 540.833 560.84 540.833 566.532 540.89 571.246 543.88 574.236 549.284 575.098 550.894 575.213 554.228 575.386 585.159L575.558 619.195 582.112 619.195 588.724 619.195 589.069 617.643Z" fill="#EDE0D4" transform="matrix(1.00527 0 0 -1 219.276 822.01)"/><path d="M133.038 431.999C118.492 429.585 104.119 422.111 93.4254 411.359 64.6217 382.613 64.6217 336.102 93.4254 307.298 112.8 287.923 140.857 280.966 167.188 288.958 189.955 295.857 208.526 314.369 215.827 337.424 220.139 350.992 220.139 367.608 215.827 381.291 207.433 407.967 184.839 427.572 157.357 432.057 150.918 433.092 139.362 433.092 133.038 431.999ZM175.122 385.775C179.952 383.303 182.884 379.681 184.264 374.564 185.069 371.69 185.184 368.815 185.011 357.891 184.839 345.818 184.724 344.438 183.631 342.023 181.849 338.171 178.629 334.894 174.892 333.055L171.615 331.445 144.594 331.445 117.572 331.445 114.295 333.055C109.753 335.297 106.649 338.976 105.154 343.863 104.119 347.37 104.004 348.922 104.177 360.881L104.349 374.047 106.246 377.841C108.776 383.016 113.088 386.35 118.607 387.5 119.93 387.73 132.29 387.96 146.089 387.902L171.155 387.787 175.122 385.775Z" fill="#EDE0D4" transform="matrix(1.00527 0 0 -1 219.276 822.01)"/><path d="M135.568 370.195C134.648 369.677 134.533 368.527 134.533 359.041 134.533 348.52 134.533 348.405 135.855 348.118 137.58 347.658 158.795 357.834 158.335 358.869 158.105 359.559 137.925 370.827 137.005 370.827 136.717 370.827 136.085 370.54 135.568 370.195Z" fill="#EDE0D4" transform="matrix(1.00527 0 0 -1 219.276 822.01)"/><path d="M346.968 431.999C331.905 429.355 318.049 422.168 307.298 411.359 292.637 396.699 285.106 377.554 285.911 356.799 286.486 341.908 290.108 330.467 298.214 318.336 311.667 298.042 334.779 285.738 359.329 285.738 391.065 285.738 419.121 305.861 429.125 335.757 442.06 374.507 421.363 416.246 382.843 429.125 379.566 430.274 374.392 431.539 371.402 432.057 364.733 433.092 353.177 433.092 346.968 431.999ZM339.034 394.974C342.138 393.594 343.806 390.95 343.806 387.5 343.806 382.268 340.241 379.106 334.779 379.566 331.215 379.853 328.743 381.808 327.65 385.028 325.983 390.087 330.18 395.779 335.757 396.066 336.217 396.066 337.711 395.606 339.034 394.974ZM385.718 373.357C389.742 372.207 393.192 368.757 394.687 364.503 395.664 361.686 395.836 359.329 396.009 344.266L396.181 327.133 388.995 327.133 381.751 327.133 381.751 340.414C381.751 354.614 381.291 357.891 379.164 359.904 377.266 361.686 373.357 362.031 370.54 360.708 366.63 358.869 366.228 357.201 366.228 341.103L366.228 327.133 358.754 327.133 351.28 327.133 351.28 350.13 351.28 373.127 358.466 373.127 365.653 373.127 365.653 370.425 365.653 367.723 367.838 369.85C372.034 373.932 379.106 375.369 385.718 373.357ZM342.656 350.13 342.656 327.133 335.469 327.133 328.283 327.133 328.283 350.13 328.283 373.127 335.469 373.127 342.656 373.127 342.656 350.13Z" fill="#EDE0D4" transform="matrix(1.00527 0 0 -1 219.276 822.01)"/><path d="M560.61 431.999C540.89 428.665 522.838 416.764 511.454 399.573 499.668 381.751 496.391 357.949 502.83 337.366 510.017 314.484 528.702 295.857 551.469 288.958 577.8 280.966 605.857 287.923 625.232 307.298 654.036 336.102 654.036 382.613 625.232 411.359 614.308 422.283 600.108 429.642 585.102 432.057 578.605 433.092 567.107 433.092 560.61 431.999ZM582.17 402.965C591.886 401.643 600.338 397.216 607.294 389.857 618.218 378.186 621.61 362.491 616.55 347.255 612.123 334.147 600.797 323.626 586.999 319.889 581.365 318.336 571.361 318.451 565.555 320.119 563.082 320.809 560.035 321.901 558.77 322.591L556.471 323.741 545.26 320.751C539.108 319.141 533.934 317.934 533.761 318.106 533.589 318.221 534.796 323.338 536.463 329.375L539.395 340.414 537.958 343.691C535.083 350.13 534.451 353.407 534.394 361.053 534.394 366.975 534.623 368.987 535.773 372.552 540.775 388.65 553.079 399.803 569.062 402.678 574.638 403.713 576.651 403.77 582.17 402.965Z" fill="#EDE0D4" transform="matrix(1.00527 0 0 -1 219.276 822.01)"/><path d="M568.314 394.169C558.943 391.869 550.549 385.143 546.18 376.519 543.535 371.345 542.557 367.09 542.557 361.053 542.557 354.729 543.132 352.142 546.007 345.933L548.134 341.448 546.582 335.584C545.777 332.422 545.202 329.662 545.317 329.547 545.432 329.375 548.192 330.007 551.354 330.87L557.161 332.48 561.588 330.41C567.279 327.765 569.981 327.19 576.651 327.133 586.482 327.133 593.381 329.95 600.28 336.849 609.019 345.588 612.468 357.259 609.709 369.045 606.949 380.773 596.773 391.007 584.872 394.112 580.963 395.147 572.339 395.147 568.314 394.169ZM564.865 379.911C566.589 379.106 569.751 373.184 569.751 370.655 569.751 369.677 569.119 368.068 568.257 366.975 566.302 364.445 566.647 363.296 570.556 358.984 573.488 355.707 579.353 351.855 581.422 351.855 581.882 351.855 582.917 352.889 583.78 354.154 585.907 357.316 587.402 357.546 591.944 355.304 593.956 354.327 596.083 352.889 596.543 352.142 599.13 348.175 593.323 342.081 586.942 342.081 584.585 342.081 579.525 343.748 575.213 345.99 567.969 349.785 559.518 359.156 556.816 366.4 554.918 371.46 556.701 377.669 560.725 379.681 562.967 380.773 563.025 380.773 564.865 379.911Z" fill="#EDE0D4" transform="matrix(1.00527 0 0 -1 219.276 822.01)"/><path d="M133.958 218.184C119.182 215.885 103.717 207.893 93.138 197.2 79.8572 183.746 72.7281 167.246 72.0382 148.273 71.2333 126.886 78.4199 108.489 93.4254 93.4254 107.626 79.1673 125.219 71.8657 145.399 71.8657 164.889 71.8657 182.022 78.5924 196.05 91.8157 210.768 105.614 219.047 124.874 219.047 145.169 219.047 170.178 207.031 192.715 186.218 206.858 181.849 209.79 173.685 213.642 167.648 215.54 157.127 218.932 144.824 219.852 133.958 218.184ZM156.092 185.471C157.99 184.954 161.727 183.459 164.429 182.136 168.338 180.182 170.351 178.687 174.49 174.49 182.769 166.211 186.103 158.737 186.678 147.181 186.966 141.604 186.793 139.764 185.816 135.797 180.987 116.825 164.831 104.062 145.456 104.062 130.278 104.062 116.825 111.938 109.063 125.334 104.464 133.383 102.797 145.456 105.154 154.655 109.121 170.695 121.482 182.711 137.407 186.046 142.007 187.023 151.263 186.736 156.092 185.471Z" fill="#EDE0D4" transform="matrix(1.00527 0 0 -1 219.276 822.01)"/><path d="M138.96 179.492C138.04 179.089 138.155 178.744 139.994 176.215 141.719 173.8 143.559 170.868 149.826 160.577L150.631 159.312 153.275 160.404C157.127 162.072 163.221 166.211 166.039 169.028L168.511 171.5 166.901 172.823C164.371 174.892 157.587 178.112 153.793 179.089 150.343 179.952 140.857 180.182 138.96 179.492Z" fill="#EDE0D4" transform="matrix(1.00527 0 0 -1 219.276 822.01)"/><path d="M125.506 173.685C123.264 172.133 120.389 169.603 119.067 168.051 116.652 165.291 112.455 157.472 111.766 154.54L111.421 152.93 114.755 152.93C120.907 152.93 137.177 155.172 142.122 156.725 142.927 156.955 142.524 157.875 139.707 162.589 135.395 169.661 130.968 176.1 130.163 176.33 129.876 176.445 127.749 175.237 125.506 173.685Z" fill="#EDE0D4" transform="matrix(1.00527 0 0 -1 219.276 822.01)"/><path d="M169.603 163.739C165.981 160.347 160.002 156.322 156.15 154.655L153.563 153.563 154.885 150.516 156.265 147.468 160.634 147.641C164.774 147.813 176.387 146.951 179.204 146.204 180.469 145.916 180.527 146.031 180.182 148.676 179.492 154.598 176.617 162.129 173.858 165.406L172.765 166.671 169.603 163.739Z" fill="#EDE0D4" transform="matrix(1.00527 0 0 -1 219.276 822.01)"/><path d="M141.144 149.711C136.085 148.273 124.701 146.606 117.457 146.261L110.386 145.859 110.673 142.927C111.536 135.625 114.238 128.438 117.745 124.241L119.297 122.344 121.539 125.564C124.011 129.186 131.256 136.257 135.28 139.075 137.58 140.627 142.639 143.214 147.526 145.226 148.733 145.744 148.733 145.744 147.698 148.216 146.549 150.918 146.031 151.033 141.144 149.711Z" fill="#EDE0D4" transform="matrix(1.00527 0 0 -1 219.276 822.01)"/><path d="M159.772 141.087C158.909 140.857 159.024 140.109 160.692 134.935 161.727 131.715 163.221 126.426 163.911 123.207 164.659 119.93 165.579 117.285 165.924 117.285 167.016 117.285 173.283 124.069 175.41 127.576 177.135 130.451 178.399 133.613 179.722 138.672 179.952 139.42 179.319 139.764 176.962 140.282 173.743 141.029 161.382 141.604 159.772 141.087Z" fill="#EDE0D4" transform="matrix(1.00527 0 0 -1 219.276 822.01)"/><path d="M145.111 136.315C138.212 132.923 132.175 128.323 128.381 123.494 123.667 117.572 123.667 117.802 127.806 115.33 133.44 111.996 138.385 110.731 145.456 110.731 152.413 110.731 158.68 112.168 158.68 113.778 158.68 116.997 152.183 139.132 151.263 139.132 151.033 139.132 148.273 137.867 145.111 136.315Z" fill="#EDE0D4" transform="matrix(1.00527 0 0 -1 219.276 822.01)"/><path d="M350.992 218.702C326.615 215.022 307.643 202.546 295.742 182.481 289.533 171.96 286.428 161.152 285.911 148.273 285.048 127.001 292.292 108.489 307.298 93.4254 321.441 79.1673 339.149 71.8082 359.099 71.8082 371.747 71.8082 382.268 74.2804 393.134 79.9147 413.544 90.4358 428.09 110.271 432.057 133.038 433.149 139.534 433.149 150.746 432.057 157.3 426.882 187.713 404.345 211.055 373.702 217.667 369.505 218.587 354.614 219.219 350.992 218.702ZM382.901 177.02C384.338 176.387 386.063 175.352 386.753 174.72 388.19 173.34 389.972 173.513 394.917 175.697 396.584 176.445 398.251 177.077 398.481 177.077 399.286 177.077 396.929 172.823 394.917 170.523L393.134 168.511 396.239 169.373C397.906 169.891 399.458 170.408 399.746 170.58 399.976 170.695 400.148 170.408 400.148 169.891 400.148 169.373 398.481 167.188 396.411 165.061 393.134 161.612 392.674 160.922 392.674 158.909 392.674 150.918 389.455 139.362 385.373 132.635 374.047 113.95 346.91 106.879 325.178 116.94 322.878 117.975 320.809 119.125 320.636 119.412 320.406 119.757 322.303 120.102 325.58 120.332 332.365 120.734 343.231 124.471 343.231 126.369 343.231 126.599 341.736 127.231 339.896 127.749 335.987 128.898 331.732 132.348 330.007 135.74 329.375 136.947 328.858 138.097 328.858 138.27 328.858 138.442 330.237 138.557 331.905 138.557L334.894 138.615 332.25 139.994C327.305 142.582 323.108 148.848 323.108 153.62 323.108 155.402 323.108 155.402 324.948 154.713 325.695 154.483 327.018 154.08 327.938 153.85L329.605 153.448 327.19 156.15C325.695 157.875 324.488 160.002 323.913 162.014 322.763 165.924 323.051 171.673 324.488 173.915L325.523 175.467 328.168 172.88C335.872 165.464 345.013 160.922 356.626 158.737L359.329 158.277 359.329 161.554C359.329 173.858 371.632 181.964 382.901 177.02Z" fill="#EDE0D4" transform="matrix(1.00527 0 0 -1 219.276 822.01)"/><path d="M565.727 218.759C565.267 218.644 562.91 218.242 560.553 217.897 544.455 215.31 527.897 205.881 517.203 193.175 505.475 179.262 499.611 163.279 499.611 145.169 499.611 109.696 524.505 79.7422 559.69 72.9581 571.246 70.6584 585.734 71.7507 597.118 75.6027 614.941 81.7544 630.809 95.6677 639.26 112.57 648.344 130.738 649.206 154.425 641.387 173.225 631.901 196.107 612.296 212.32 587.574 217.667 583.665 218.472 567.912 219.334 565.727 218.759ZM584.412 186.448C595.163 183.804 603.557 176.042 606.662 165.981 607.697 162.589 607.812 161.037 607.524 155.287 606.949 142.869 602.81 133.9 594.876 127.863 586.827 121.827 575.213 121.482 569.406 127.116L567.509 128.956 566.934 126.714C564.232 116.135 563.312 113.088 562.105 110.271 560.208 105.959 554.861 98.1973 554.056 98.4848 553.194 98.7148 552.619 102.854 552.561 108.661 552.504 113.26 553.711 119.527 557.678 135.97L560.035 145.686 559.115 149.768C557.678 155.92 558.828 161.152 562.392 164.831 567.854 170.465 575.501 167.418 575.501 159.599 575.501 158.507 574.466 154.08 573.201 149.711 570.269 139.649 570.269 137.522 572.856 134.705 574.581 132.808 575.098 132.578 578.203 132.348 584.01 131.945 588.322 135.108 591.714 142.294 595.451 150.401 596.141 162.359 593.151 168.223 590.161 174.088 583.78 177.997 576.076 178.629 562.622 179.722 551.124 170.983 548.939 158.047 548.192 153.333 548.997 148.963 551.354 145.226 552.964 142.697 553.021 142.409 552.446 139.822 552.044 138.327 551.469 136.775 551.066 136.372 549.169 134.303 543.707 138.5 540.89 144.134 539.28 147.353 538.993 148.676 538.82 153.218 538.361 162.991 541.12 170.293 547.847 176.962 556.988 186.161 571.016 189.783 584.412 186.448Z" fill="#EDE0D4" transform="matrix(1.00527 0 0 -1 219.276 822.01)"/></g></g></g></svg>