<svg viewBox="0 0 309 90" xmlns="http://www.w3.org/2000/svg" xmlns:xlink="http://www.w3.org/1999/xlink" class="iconLeft" overflow="hidden"><style>
.MsftOfcResponsive_Fill_ede0d4 {
 fill:#EDE0D4; 
}
</style>
<g id="a7d5ffac-65ba-45ae-9fe2-ee09fe4179e3" transform="matrix(4.93016 0 0 4.93016 135.22 -12.6582)"><path d="M4.87 7.74 4.87 7.74C5.36333 7.74 5.81 7.87667 6.21 8.15L6.21 8.15 6.21 8.15C6.60333 8.41667 6.91333 8.81333 7.14 9.34L7.14 9.34 7.14 9.34C7.36667 9.86 7.48 10.4833 7.48 11.21L7.48 11.21 7.48 11.21C7.48 11.93 7.36333 12.6033 7.13 13.23L7.13 13.23 7.13 13.23C6.90333 13.8567 6.55 14.3667 6.07 14.76L6.07 14.76 6.07 14.76C5.59 15.1467 4.99 15.34 4.27 15.34L4.27 15.34 4.27 15.34C3.91667 15.34 3.59333 15.27 3.3 15.13L3.3 15.13 3.3 15.13C3.01333 14.99 2.79 14.81 2.63 14.59L2.63 14.59 2.63 16.38 2.63 16.38C2.63 16.76 2.74333 17.0233 2.97 17.17L2.97 17.17 2.97 17.17C3.19 17.3167 3.52667 17.39 3.98 17.39L3.98 17.39 3.98 17.68 3.65 17.67 3.65 17.67C2.78333 17.6433 2.22 17.63 1.96 17.63L1.96 17.63 1.96 17.63C1.73333 17.63 1.23 17.6467 0.45 17.68L0.45 17.68 0.45 17.39 0.45 17.39C0.796667 17.39 1.03667 17.3267 1.17 17.2L1.17 17.2 1.17 17.2C1.30333 17.0733 1.37 16.8467 1.37 16.52L1.37 16.52 1.37 9.46 1.37 9.46C1.37 9.03333 1.29 8.72333 1.13 8.53L1.13 8.53 1.13 8.53C0.976667 8.33 0.703333 8.23 0.31 8.23L0.31 8.23 0.31 7.94 0.31 7.94C0.596667 7.96667 0.886667 7.98 1.18 7.98L1.18 7.98 1.18 7.98C1.76667 7.98 2.25 7.91333 2.63 7.78L2.63 7.78 2.63 9.27 2.63 9.27C2.83667 8.78333 3.13667 8.40667 3.53 8.14L3.53 8.14 3.53 8.14C3.92333 7.87333 4.37 7.74 4.87 7.74L4.87 7.74ZM4.12 15.02 4.12 15.02C5.45333 15.02 6.12 13.8167 6.12 11.41L6.12 11.41 6.12 11.41C6.12 9.24333 5.57667 8.16 4.49 8.16L4.49 8.16 4.49 8.16C4.07 8.16 3.69333 8.31333 3.36 8.62L3.36 8.62 3.36 8.62C3.02667 8.92 2.78333 9.35667 2.63 9.93L2.63 9.93 2.63 14.13 2.63 14.13C2.76333 14.3967 2.95667 14.6133 3.21 14.78L3.21 14.78 3.21 14.78C3.45667 14.94 3.76 15.02 4.12 15.02L4.12 15.02ZM14.34 13.36 14.62 13.47 14.62 13.47C14.4467 13.9833 14.13 14.4233 13.67 14.79L13.67 14.79 13.67 14.79C13.21 15.1567 12.6533 15.34 12 15.34L12 15.34 12 15.34C11.3333 15.34 10.76 15.19 10.28 14.89L10.28 14.89 10.28 14.89C9.79333 14.5833 9.42 14.16 9.16 13.62L9.16 13.62 9.16 13.62C8.90667 13.0733 8.78 12.44 8.78 11.72L8.78 11.72 8.78 11.72C8.78 10.9067 8.91 10.2 9.17 9.6L9.17 9.6 9.17 9.6C9.43 9.00667 9.8 8.54667 10.28 8.22L10.28 8.22 10.28 8.22C10.7533 7.9 11.3067 7.74 11.94 7.74L11.94 7.74 11.94 7.74C12.78 7.74 13.4267 7.99333 13.88 8.5L13.88 8.5 13.88 8.5C14.3333 9.01333 14.56 9.78667 14.56 10.82L14.56 10.82 10.18 10.82 10.18 10.82C10.1533 11.08 10.14 11.38 10.14 11.72L10.14 11.72 10.14 11.72C10.14 12.3333 10.24 12.87 10.44 13.33L10.44 13.33 10.44 13.33C10.64 13.7833 10.9033 14.1333 11.23 14.38L11.23 14.38 11.23 14.38C11.5633 14.6333 11.9133 14.76 12.28 14.76L12.28 14.76 12.28 14.76C12.7267 14.76 13.1233 14.65 13.47 14.43L13.47 14.43 13.47 14.43C13.8167 14.2167 14.1067 13.86 14.34 13.36L14.34 13.36ZM11.89 8.01 11.89 8.01C11.45 8.01 11.07 8.22333 10.75 8.65L10.75 8.65 10.75 8.65C10.4367 9.08333 10.24 9.72 10.16 10.56L10.16 10.56 13.22 10.56 13.22 10.56C13.2333 9.82667 13.1267 9.22 12.9 8.74L12.9 8.74 12.9 8.74C12.6733 8.25333 12.3367 8.01 11.89 8.01L11.89 8.01ZM17.88 5.61 17.88 7.95 19.95 7.95 19.95 8.23 17.88 8.23 17.88 13.65 17.88 13.65C17.88 14.07 17.9567 14.3733 18.11 14.56L18.11 14.56 18.11 14.56C18.2633 14.7467 18.4833 14.84 18.77 14.84L18.77 14.84 18.77 14.84C19.0633 14.84 19.3133 14.7233 19.52 14.49L19.52 14.49 19.52 14.49C19.72 14.2567 19.89 13.8733 20.03 13.34L20.03 13.34 20.31 13.41 20.31 13.41C20.0767 14.6967 19.47 15.34 18.49 15.34L18.49 15.34 18.49 15.34C18.1767 15.34 17.9167 15.3033 17.71 15.23L17.71 15.23 17.71 15.23C17.5033 15.1567 17.32 15.04 17.16 14.88L17.16 14.88 17.16 14.88C16.96 14.6733 16.82 14.4233 16.74 14.13L16.74 14.13 16.74 14.13C16.66 13.83 16.62 13.4267 16.62 12.92L16.62 12.92 16.62 8.23 15.27 8.23 15.27 7.95 16.62 7.95 16.62 5.81 16.62 5.81C17.14 5.79 17.56 5.72333 17.88 5.61L17.88 5.61ZM25.05 7.74 25.05 7.74C25.5433 7.74 25.9867 7.87667 26.38 8.15L26.38 8.15 26.38 8.15C26.78 8.41667 27.09 8.81333 27.31 9.34L27.31 9.34 27.31 9.34C27.5367 9.86 27.65 10.4833 27.65 11.21L27.65 11.21 27.65 11.21C27.65 11.93 27.5367 12.6033 27.31 13.23L27.31 13.23 27.31 13.23C27.0767 13.8567 26.72 14.3667 26.24 14.76L26.24 14.76 26.24 14.76C25.76 15.1467 25.16 15.34 24.44 15.34L24.44 15.34 24.44 15.34C24.0867 15.34 23.7667 15.27 23.48 15.13L23.48 15.13 23.48 15.13C23.1867 14.99 22.9633 14.81 22.81 14.59L22.81 14.59 22.81 16.38 22.81 16.38C22.81 16.76 22.92 17.0233 23.14 17.17L23.14 17.17 23.14 17.17C23.3667 17.3167 23.7033 17.39 24.15 17.39L24.15 17.39 24.15 17.68 23.83 17.67 23.83 17.67C22.9633 17.6433 22.3967 17.63 22.13 17.63L22.13 17.63 22.13 17.63C21.91 17.63 21.4067 17.6467 20.62 17.68L20.62 17.68 20.62 17.39 20.62 17.39C20.9667 17.39 21.2067 17.3267 21.34 17.2L21.34 17.2 21.34 17.2C21.48 17.0733 21.55 16.8467 21.55 16.52L21.55 16.52 21.55 9.46 21.55 9.46C21.55 9.03333 21.47 8.72333 21.31 8.53L21.31 8.53 21.31 8.53C21.15 8.33 20.8733 8.23 20.48 8.23L20.48 8.23 20.48 7.94 20.48 7.94C20.7733 7.96667 21.0633 7.98 21.35 7.98L21.35 7.98 21.35 7.98C21.9367 7.98 22.4233 7.91333 22.81 7.78L22.81 7.78 22.81 9.27 22.81 9.27C23.01 8.78333 23.3067 8.40667 23.7 8.14L23.7 8.14 23.7 8.14C24.0933 7.87333 24.5433 7.74 25.05 7.74L25.05 7.74ZM24.29 15.02 24.29 15.02C25.6233 15.02 26.29 13.8167 26.29 11.41L26.29 11.41 26.29 11.41C26.29 9.24333 25.75 8.16 24.67 8.16L24.67 8.16 24.67 8.16C24.25 8.16 23.87 8.31333 23.53 8.62L23.53 8.62 23.53 8.62C23.1967 8.92 22.9567 9.35667 22.81 9.93L22.81 9.93 22.81 14.13 22.81 14.13C22.9367 14.3967 23.1267 14.6133 23.38 14.78L23.38 14.78 23.38 14.78C23.6333 14.94 23.9367 15.02 24.29 15.02L24.29 15.02ZM34.16 7.98 34.16 7.98C34.5733 7.98 34.9267 7.96667 35.22 7.94L35.22 7.94 35.22 8.22 35.22 8.22C35.0333 8.24 34.87 8.32333 34.73 8.47L34.73 8.47 34.73 8.47C34.5833 8.61667 34.4433 8.86 34.31 9.2L34.31 9.2 32.02 15.22 31.54 16.44 31.54 16.44C31.3667 16.8933 31.1667 17.22 30.94 17.42L30.94 17.42 30.94 17.42C30.8 17.5467 30.6333 17.64 30.44 17.7L30.44 17.7 30.44 17.7C30.24 17.7533 30.0433 17.78 29.85 17.78L29.85 17.78 29.85 17.78C29.57 17.78 29.34 17.7067 29.16 17.56L29.16 17.56 29.16 17.56C28.9867 17.4067 28.9 17.2 28.9 16.94L28.9 16.94 28.9 16.94C28.9 16.7133 28.9633 16.5333 29.09 16.4L29.09 16.4 29.09 16.4C29.2233 16.2667 29.4067 16.2 29.64 16.2L29.64 16.2 29.64 16.2C29.8467 16.2 30.0167 16.2567 30.15 16.37L30.15 16.37 30.15 16.37C30.2833 16.49 30.35 16.6533 30.35 16.86L30.35 16.86 30.35 16.86C30.35 17.14 30.2233 17.35 29.97 17.49L29.97 17.49 29.97 17.49C29.99 17.4967 30.02 17.5 30.06 17.5L30.06 17.5 30.06 17.5C30.5733 17.5 30.97 17.1367 31.25 16.41L31.25 16.41 31.74 15.13 29.2 9.02 29.2 9.02C29.0467 8.7 28.89 8.49 28.73 8.39L28.73 8.39 28.73 8.39C28.57 8.28333 28.41 8.23 28.25 8.23L28.25 8.23 28.25 7.94 28.25 7.94C28.65 7.99333 29.1067 8.02 29.62 8.02L29.62 8.02 29.62 8.02C30.0867 8.02 30.6933 7.99333 31.44 7.94L31.44 7.94 31.44 8.23 31.44 8.23C31.1067 8.23 30.8633 8.26 30.71 8.32L30.71 8.32 30.71 8.32C30.5567 8.37333 30.48 8.50667 30.48 8.72L30.48 8.72 30.48 8.72C30.48 8.92 30.5367 9.15 30.65 9.41L30.65 9.41 32.33 13.58 33.88 9.53 33.88 9.53C33.98 9.25 34.03 9.03667 34.03 8.89L34.03 8.89 34.03 8.89C34.03 8.67667 33.9467 8.51667 33.78 8.41L33.78 8.41 33.78 8.41C33.6133 8.31 33.3467 8.24667 32.98 8.22L32.98 8.22 32.98 7.94 32.98 7.94C33.48 7.96667 33.8733 7.98 34.16 7.98L34.16 7.98Z" class="MsftOfcResponsive_Fill_ede0d4" fill="#EDE0D4"/></g><g id="caaf9c84-c963-429a-ad99-241e382f00a4" transform="matrix(1.27963 0 0 1.27963 -5.59941 -14.3395)"><path d="M39.549 42.217C37.457 41.535 28.49 38.61 24.041 37.119 21.785 42.938 9.867 74.422 13.974 79.836 18.502 85.807 34.766 78.808 39.501 79.836 44.237 80.867 43.653 77.576 43.653 77.576L39.549 42.217ZM51.475 24.534C50.233 22.837 43.167 23.196 43.167 23.196 43.167 23.196 41.374 19.349 40.219 18.637 38.869 17.808 35.098 17.955 35.098 17.955 35.098 17.955 35.449 12.384 33.749 11.969 30.505 11.176 26.19 28.477 24.833 34.302 28.485 35.783 35.324 38.424 39.184 39.067L39.146 38.739C39.146 38.739 39.28 35.926 41.157 35.255 42.419 34.804 48.662 33.523 50.406 31.771 51.693 30.475 52.558 26.01 51.475 24.534ZM57.232 52.332C60.02 51.491 64.361 49.951 67.943 47.659 67.804 45.795 68.405 43.716 68.66 42.448 69.061 40.438 68.526 39.29 67.453 36.416 67.26 35.899 66.386 30.161 64.64 29.983 62.918 29.808 60.619 35.611 60.619 35.611 60.619 35.611 55.659 35.611 55.066 37.823 54.353 40.48 51.612 41.925 51.505 42.313 51.093 43.809 51.818 47.872 54.202 48.492 55.656 48.871 56.709 50.762 57.232 52.332ZM69.159 50.501C68.9372 50.2936 68.7444 50.0571 68.586 49.798 66.659 50.844 60.867 53.912 57.654 54.791 58.967 60.977 58.217 76.597 58.256 77.266 58.31 78.258 57.663 78.875 58.143 79.666 58.875 80.876 60.313 80.99 62.01 80.683 63.708 80.371 76.347 83.875 84.266 80.563 93.981 74.712 77.774 53.88 69.159 50.501Z" class="MsftOfcResponsive_Fill_ede0d4" fill="#EDE0D4"/><path d="M13.561 77.88C6.812 72.69 6.75 60.746 5.025 64.354 3.412 67.728 4.989 75.87 8.004 79.445 10.774 82.729 16.486 82.572 16.713 80.513M87.215 73.905C89.867 75.574 94.686 68.463 90.69 66.065 88.174 64.556 87.896 64.097 87.186 62.926 85.478 60.118 87.715 52.266 92.023 51.255 95.225 50.505 95.433 53.446 93.674 54.406 89.497 56.889 89.147 61.057 91.99 63.089 93.597 64.238 94.73 65.057 95.43 67.618 96.419 71.23 93.451 76.976 87.748 78.783 87.748 78.783 84.576 79.496 83.991 78.197" class="MsftOfcResponsive_Fill_ede0d4" fill="#EDE0D4"/></g></svg>