<svg width="405" height="415" xmlns="http://www.w3.org/2000/svg" xmlns:xlink="http://www.w3.org/1999/xlink" overflow="hidden"><defs><clipPath id="clip0"><rect x="89" y="72" width="405" height="415"/></clipPath><clipPath id="clip1"><rect x="90" y="73" width="403" height="414"/></clipPath><clipPath id="clip2"><rect x="90" y="73" width="404" height="415"/></clipPath><clipPath id="clip3"><rect x="90" y="25" width="404" height="463"/></clipPath></defs><g clip-path="url(#clip0)" transform="translate(-89 -72)"><g clip-path="url(#clip1)"><g clip-path="url(#clip2)"><g clip-path="url(#clip3)"><path d="M206.667 403.295C205.84 402.232 203.36 400.697 201.116 399.752 196.156 397.627 196.156 396.091 201.352 393.611 204.423 392.076 206.312 391.958 208.792 392.785 211.627 393.73 211.981 394.438 211.981 399.162 211.981 404.949 209.619 406.838 206.667 403.295Z" fill="#9C6644" transform="matrix(1 0 0 -1.00134 90.1476 487)"/><path d="M216.35 399.044C216.469 397.627 217.413 396.21 218.24 395.855 219.303 395.501 219.775 396.21 219.421 398.099 219.303 399.516 218.358 400.933 217.531 401.288 216.469 401.642 215.996 400.933 216.35 399.044Z" fill="#9C6644" transform="matrix(1 0 0 -1.00134 90.1476 487)"/><path d="M214.225 391.958C213.044 390.069 216.941 386.526 218.476 388.061 219.185 388.77 219.421 390.187 218.949 391.25 218.122 393.493 215.524 393.848 214.225 391.958Z" fill="#9C6644" transform="matrix(1 0 0 -1.00134 90.1476 487)"/><path d="M199.581 389.242C199.581 387.116 202.77 384.636 204.305 385.581 205.131 386.053 205.131 386.998 204.305 388.651 202.888 391.25 199.581 391.722 199.581 389.242Z" fill="#9C6644" transform="matrix(1 0 0 -1.00134 90.1476 487)"/><path d="M207.848 387.352C207.848 385.581 208.674 384.99 210.8 384.99 213.989 384.99 214.579 386.053 212.335 388.297 210.21 390.423 207.848 389.951 207.848 387.352Z" fill="#9C6644" transform="matrix(1 0 0 -1.00134 90.1476 487)"/><path d="M176.552 371.41C174.663 370.465 171.592 369.756 169.821 369.638 167.931 369.638 166.514 368.93 166.514 368.103 166.514 365.977 171.238 361.844 174.663 361.017 178.442 360.072 183.048 364.796 183.048 369.638 183.048 373.535 181.985 373.89 176.552 371.41Z" fill="#9C6644" transform="matrix(1 0 0 -1.00134 90.1476 487)"/><path d="M185.646 363.497C185.882 361.962 186.59 360.781 187.181 360.781 187.89 360.781 188.48 361.962 188.716 363.497 188.952 365.269 188.48 366.095 187.181 366.095 185.882 366.095 185.41 365.269 185.646 363.497Z" fill="#9C6644" transform="matrix(1 0 0 -1.00134 90.1476 487)"/><path d="M166.514 359.246C166.514 357.947 167.341 356.53 168.404 356.175 169.703 355.703 170.175 356.175 169.821 358.065 169.349 361.371 166.514 362.316 166.514 359.246Z" fill="#9C6644" transform="matrix(1 0 0 -1.00134 90.1476 487)"/><path d="M180.686 356.766C180.686 353.813 182.93 352.278 184.347 354.404 185.764 356.648 185.055 358.301 182.693 358.773 181.394 359.01 180.686 358.419 180.686 356.766Z" fill="#9C6644" transform="matrix(1 0 0 -1.00134 90.1476 487)"/><path d="M172.891 356.53C171.71 354.522 175.608 351.097 177.379 352.869 178.324 353.813 178.324 354.64 177.143 356.057 175.371 358.183 174.072 358.301 172.891 356.53Z" fill="#9C6644" transform="matrix(1 0 0 -1.00134 90.1476 487)"/><path d="M213.752 349.326C210.21 347.436 207.139 345.429 206.903 344.838 206.312 343.303 212.217 339.878 215.524 339.878 219.893 339.878 222.019 342.24 222.019 347.318 222.019 349.798 221.665 352.042 221.192 352.278 220.602 352.514 217.295 351.215 213.752 349.326Z" fill="#9C6644" transform="matrix(1 0 0 -1.00134 90.1476 487)"/><path d="M225.09 346.137C224.145 344.72 227.57 342.122 228.987 342.949 229.695 343.421 229.931 344.484 229.459 345.429 228.75 347.436 226.034 347.79 225.09 346.137Z" fill="#9C6644" transform="matrix(1 0 0 -1.00134 90.1476 487)"/><path d="M223.2 337.87C223.2 335.036 225.326 333.501 226.861 335.036 228.396 336.571 226.979 340.114 224.853 340.114 223.909 340.114 223.2 339.051 223.2 337.87Z" fill="#9C6644" transform="matrix(1 0 0 -1.00134 90.1476 487)"/><path d="M208.32 337.634C207.611 336.335 209.855 333.029 211.509 333.029 212.099 333.029 212.571 334.091 212.571 335.272 212.571 337.752 209.501 339.524 208.32 337.634Z" fill="#9C6644" transform="matrix(1 0 0 -1.00134 90.1476 487)"/><path d="M216.114 334.918C216.114 332.32 219.539 330.076 221.074 331.611 222.019 332.556 222.019 333.383 220.838 334.8 218.949 337.044 216.114 337.162 216.114 334.918Z" fill="#9C6644" transform="matrix(1 0 0 -1.00134 90.1476 487)"/><path d="M190.488 314.488C184.583 313.897 183.992 312.008 188.362 307.638 192.495 303.387 196.747 303.741 199.581 308.583 203.832 315.432 203.478 315.669 190.488 314.488Z" fill="#9C6644" transform="matrix(1 0 0 -1.00134 90.1476 487)"/><path d="M202.533 307.402C201.707 305.158 203.596 302.914 205.368 303.977 207.257 305.158 207.021 307.874 205.013 308.583 204.069 308.937 203.006 308.465 202.533 307.402Z" fill="#9C6644" transform="matrix(1 0 0 -1.00134 90.1476 487)"/><path d="M183.284 303.859C183.756 301.379 187.181 300.907 187.181 303.505 187.181 304.45 186.236 305.394 185.055 305.63 183.402 305.985 182.93 305.512 183.284 303.859Z" fill="#9C6644" transform="matrix(1 0 0 -1.00134 90.1476 487)"/><path d="M190.133 299.49C190.133 296.301 193.44 294.411 194.385 297.01 195.093 298.899 192.968 302.324 191.196 302.324 190.606 302.324 190.133 301.025 190.133 299.49Z" fill="#9C6644" transform="matrix(1 0 0 -1.00134 90.1476 487)"/><path d="M196.865 300.67C195.802 298.072 198.99 295.947 200.762 298.072 201.47 299.135 201.825 300.434 201.352 301.143 200.29 302.914 197.573 302.56 196.865 300.67Z" fill="#9C6644" transform="matrix(1 0 0 -1.00134 90.1476 487)"/><path d="M230.64 290.75C223.672 288.743 222.964 287.09 227.451 283.547 233.474 278.823 239.733 281.657 239.733 289.097 239.733 293.349 239.497 293.349 230.64 290.75Z" fill="#9C6644" transform="matrix(1 0 0 -1.00134 90.1476 487)"/><path d="M242.804 285.909C241.977 284.61 243.158 281.067 244.457 281.067 245.756 281.067 246.937 284.61 246.11 285.909 245.756 286.499 245.048 286.971 244.457 286.971 243.867 286.971 243.158 286.499 242.804 285.909Z" fill="#9C6644" transform="matrix(1 0 0 -1.00134 90.1476 487)"/><path d="M223.79 280.004C222.846 278.232 224.145 276.343 226.27 276.343 227.333 276.343 227.924 277.17 227.688 278.35 227.215 280.712 224.853 281.657 223.79 280.004Z" fill="#9C6644" transform="matrix(1 0 0 -1.00134 90.1476 487)"/><path d="M238.552 276.933C238.552 273.627 241.387 272.918 242.568 275.87 243.512 278.232 242.45 279.886 240.206 279.886 239.261 279.886 238.552 278.705 238.552 276.933Z" fill="#9C6644" transform="matrix(1 0 0 -1.00134 90.1476 487)"/><path d="M230.758 275.752C231.112 274.69 231.467 273.509 231.467 273.272 231.467 273.036 232.53 272.8 233.947 272.8 237.371 272.8 236.427 276.815 232.766 277.288 230.522 277.642 230.168 277.288 230.758 275.752Z" fill="#9C6644" transform="matrix(1 0 0 -1.00134 90.1476 487)"/><path d="M189.307 260.164C190.606 252.488 197.219 250.244 202.533 255.676 206.312 259.337 206.194 260.754 202.297 261.581 200.408 261.935 197.337 262.762 195.33 263.352 189.189 265.36 188.598 265.006 189.307 260.164Z" fill="#9C6644" transform="matrix(1 0 0 -1.00134 90.1476 487)"/><path d="M183.874 257.802C182.339 256.385 183.048 252.724 184.819 252.724 185.882 252.724 186.59 253.787 186.59 255.676 186.59 258.51 185.41 259.455 183.874 257.802Z" fill="#9C6644" transform="matrix(1 0 0 -1.00134 90.1476 487)"/><path d="M202.297 250.952C201.943 249.89 201.943 248.827 202.297 248.354 203.478 247.173 206.667 249.063 206.667 250.952 206.667 253.314 203.242 253.314 202.297 250.952Z" fill="#9C6644" transform="matrix(1 0 0 -1.00134 90.1476 487)"/><path d="M187.299 250.48C186.236 248.827 187.771 245.638 189.661 245.638 190.606 245.638 191.314 246.819 191.314 248.59 191.314 251.543 188.598 252.724 187.299 250.48Z" fill="#9C6644" transform="matrix(1 0 0 -1.00134 90.1476 487)"/><path d="M194.385 247.173C193.086 243.985 195.92 242.213 197.928 244.93 200.171 248.118 200.053 249.181 197.337 249.181 196.156 249.181 194.739 248.236 194.385 247.173Z" fill="#9C6644" transform="matrix(1 0 0 -1.00134 90.1476 487)"/><path d="M219.185 225.68C218.24 224.145 219.775 220.956 222.964 218.122 226.625 214.815 231.467 215.878 234.183 220.602 235.482 222.728 236.309 224.735 236.072 224.853 234.773 226.152 219.893 226.861 219.185 225.68Z" fill="#9C6644" transform="matrix(1 0 0 -1.00134 90.1476 487)"/><path d="M216.114 216.114C216.114 214.815 216.941 213.752 217.886 213.752 218.83 213.752 219.657 214.815 219.657 216.114 219.657 217.413 218.83 218.476 217.886 218.476 216.941 218.476 216.114 217.413 216.114 216.114Z" fill="#9C6644" transform="matrix(1 0 0 -1.00134 90.1476 487)"/><path d="M235.718 217.413C234.891 216.114 236.072 212.571 237.371 212.571 238.316 212.571 239.733 215.406 239.733 217.413 239.733 218.83 236.545 218.83 235.718 217.413Z" fill="#9C6644" transform="matrix(1 0 0 -1.00134 90.1476 487)"/><path d="M222.846 213.044C220.956 211.154 222.019 207.848 224.499 207.848 226.27 207.848 226.861 208.438 226.507 210.446 226.152 213.044 224.263 214.343 222.846 213.044Z" fill="#9C6644" transform="matrix(1 0 0 -1.00134 90.1476 487)"/><path d="M229.577 211.981C229.105 211.036 229.223 209.265 229.577 208.202 230.286 206.43 230.522 206.43 232.293 208.084 234.183 210.091 233.71 213.752 231.467 213.752 230.758 213.752 229.931 212.926 229.577 211.981Z" fill="#9C6644" transform="matrix(1 0 0 -1.00134 90.1476 487)"/><path d="M175.962 206.076C175.962 201.47 179.269 197.219 182.93 197.219 185.528 197.219 191.314 201.589 191.314 203.478 191.314 204.659 179.15 210.21 176.67 210.21 176.316 210.21 175.962 208.32 175.962 206.076Z" fill="#9C6644" transform="matrix(1 0 0 -1.00134 90.1476 487)"/><path d="M169.585 202.297C168.64 200.053 170.53 197.81 172.301 198.872 174.19 200.053 173.836 204.305 171.947 204.305 171.002 204.305 169.939 203.36 169.585 202.297Z" fill="#9C6644" transform="matrix(1 0 0 -1.00134 90.1476 487)"/><path d="M172.773 195.33C171.829 192.85 174.309 190.37 176.08 192.141 177.615 193.676 176.67 197.219 174.781 197.219 174.072 197.219 173.246 196.392 172.773 195.33Z" fill="#9C6644" transform="matrix(1 0 0 -1.00134 90.1476 487)"/><path d="M188.598 196.392C187.417 195.33 187.653 191.314 188.834 191.314 189.425 191.314 190.488 192.141 191.314 193.086 193.322 195.566 190.842 198.754 188.598 196.392Z" fill="#9C6644" transform="matrix(1 0 0 -1.00134 90.1476 487)"/><path d="M180.213 193.086C177.615 190.488 177.851 188.952 180.686 188.952 183.402 188.952 185.173 192.023 183.402 193.794 182.575 194.621 181.512 194.385 180.213 193.086Z" fill="#9C6644" transform="matrix(1 0 0 -1.00134 90.1476 487)"/><path d="M205.486 169.23C205.486 160.964 213.989 157.539 219.657 163.562 222.846 166.987 222.255 168.05 215.524 169.821 212.926 170.53 209.619 171.474 208.202 171.829 205.84 172.537 205.486 172.301 205.486 169.23Z" fill="#9C6644" transform="matrix(1 0 0 -1.00134 90.1476 487)"/><path d="M201.116 165.688C198.99 164.861 199.227 160.61 201.352 160.61 203.478 160.61 205.013 163.916 203.596 165.215 203.006 165.806 201.825 165.924 201.116 165.688Z" fill="#9C6644" transform="matrix(1 0 0 -1.00134 90.1476 487)"/><path d="M155.768 160.137C154.469 158.838 156.004 153.76 158.366 151.28 161.436 147.973 164.389 148.21 168.876 151.87 173.246 155.65 173.01 157.421 167.577 158.366 165.333 158.838 161.909 159.547 160.019 160.019 158.011 160.373 156.122 160.491 155.768 160.137Z" fill="#9C6644" transform="matrix(1 0 0 -1.00134 90.1476 487)"/><path d="M219.303 159.783C218.122 158.72 218.358 154.705 219.539 154.705 220.13 154.705 221.192 155.531 222.019 156.476 224.027 158.956 221.547 162.145 219.303 159.783Z" fill="#9C6644" transform="matrix(1 0 0 -1.00134 90.1476 487)"/><path d="M204.423 158.248C202.415 157.067 203.596 153.524 206.076 153.524 207.021 153.524 207.848 154.587 207.848 155.768 207.848 158.602 206.43 159.547 204.423 158.248Z" fill="#9C6644" transform="matrix(1 0 0 -1.00134 90.1476 487)"/><path d="M211.627 155.65C209.501 153.524 209.855 150.926 212.335 151.398 213.398 151.634 214.461 152.933 214.697 154.469 215.17 157.303 213.87 157.893 211.627 155.65Z" fill="#9C6644" transform="matrix(1 0 0 -1.00134 90.1476 487)"/><path d="M149.981 151.044C149.981 148.091 153.878 148.446 154.469 151.516 154.705 152.933 154.114 153.524 152.461 153.524 150.69 153.524 149.981 152.815 149.981 151.044Z" fill="#9C6644" transform="matrix(1 0 0 -1.00134 90.1476 487)"/><path d="M169.585 148.091C169.23 147.029 169.23 145.73 169.585 145.139 170.53 143.604 173.6 146.202 173.6 148.328 173.6 150.571 170.53 150.453 169.585 148.091Z" fill="#9C6644" transform="matrix(1 0 0 -1.00134 90.1476 487)"/><path d="M155.059 145.73C154.705 144.785 155.177 143.013 156.24 141.95 158.011 140.297 158.248 140.297 158.956 142.069 159.901 144.549 158.838 147.619 157.067 147.619 156.358 147.619 155.531 146.792 155.059 145.73Z" fill="#9C6644" transform="matrix(1 0 0 -1.00134 90.1476 487)"/><path d="M163.208 145.021C162.381 144.194 161.79 142.895 161.79 142.069 161.79 139.943 165.215 140.179 166.16 142.423 167.105 144.903 164.979 146.792 163.208 145.021Z" fill="#9C6644" transform="matrix(1 0 0 -1.00134 90.1476 487)"/><path d="M171.592 124.827C164.389 123.41 163.444 120.93 168.404 117.032 171.947 114.198 174.545 113.962 177.379 116.206 179.741 117.977 182.221 123.764 181.158 125.299 180.45 126.48 180.213 126.48 171.592 124.827Z" fill="#9C6644" transform="matrix(1 0 0 -1.00134 90.1476 487)"/><path d="M183.048 117.623C183.048 115.615 183.638 114.552 184.937 114.552 186.118 114.552 186.59 115.379 186.354 117.15 185.764 120.93 183.048 121.284 183.048 117.623Z" fill="#9C6644" transform="matrix(1 0 0 -1.00134 90.1476 487)"/><path d="M163.562 114.552C162.735 113.135 164.979 109.829 166.75 109.829 168.286 109.829 167.459 114.907 165.688 115.379 164.979 115.615 164.034 115.261 163.562 114.552Z" fill="#9C6644" transform="matrix(1 0 0 -1.00134 90.1476 487)"/><path d="M178.088 111.954C177.261 109.71 178.324 107.467 180.095 107.467 181.867 107.467 183.402 110.655 182.339 112.309 181.394 113.844 178.678 113.608 178.088 111.954Z" fill="#9C6644" transform="matrix(1 0 0 -1.00134 90.1476 487)"/><path d="M170.648 111.01C169.703 109.474 172.183 106.286 174.309 106.286 176.316 106.286 176.434 108.884 174.545 110.773 172.773 112.545 171.592 112.545 170.648 111.01Z" fill="#9C6644" transform="matrix(1 0 0 -1.00134 90.1476 487)"/><path d="M218.122 106.758C217.768 106.286 214.579 105.105 211.154 103.924L205.013 101.916 208.084 98.8457C213.989 92.941 222.019 95.7752 222.019 103.688 222.019 107.23 220.13 108.648 218.122 106.758Z" fill="#9C6644" transform="matrix(1 0 0 -1.00134 90.1476 487)"/><path d="M224.381 99.9086C224.381 97.4286 226.861 96.2476 227.924 98.1371 228.514 98.9638 228.632 100.145 228.396 100.617 227.333 102.27 224.381 101.68 224.381 99.9086Z" fill="#9C6644" transform="matrix(1 0 0 -1.00134 90.1476 487)"/><path d="M222.137 94.5943C220.13 93.2952 220.956 89.1619 223.2 89.1619 225.208 89.1619 226.27 93.0591 224.735 94.5943 224.263 95.0667 223.082 95.0667 222.137 94.5943Z" fill="#9C6644" transform="matrix(1 0 0 -1.00134 90.1476 487)"/><path d="M206.903 92.5867C207.139 91.2876 208.202 90.2248 209.501 89.9886 211.036 89.6343 211.509 90.1067 211.154 91.6419 210.918 92.941 209.855 94.0038 208.556 94.24 207.021 94.5943 206.549 94.1219 206.903 92.5867Z" fill="#9C6644" transform="matrix(1 0 0 -1.00134 90.1476 487)"/><path d="M213.752 90.3429C213.752 88.0991 218.004 85.7371 219.067 87.3905 220.011 88.9257 217.531 92.1143 215.406 92.1143 214.461 92.1143 213.752 91.2876 213.752 90.3429Z" fill="#9C6644" transform="matrix(1 0 0 -1.00134 90.1476 487)"/><path d="M173.6 73.219C173.6 71.92 174.427 69.2038 175.371 67.3143 177.733 62.7086 183.048 62.4724 187.299 66.7238 191.314 70.7391 190.488 72.5105 183.992 73.4552 180.922 73.8095 177.379 74.5181 176.08 74.9905 174.072 75.581 173.6 75.2267 173.6 73.219Z" fill="#9C6644" transform="matrix(1 0 0 -1.00134 90.1476 487)"/><path d="M168.876 65.661C168.876 63.6533 169.467 62.5905 170.766 62.5905 171.947 62.5905 172.419 63.4171 172.183 65.1886 171.592 68.9676 168.876 69.3219 168.876 65.661Z" fill="#9C6644" transform="matrix(1 0 0 -1.00134 90.1476 487)"/><path d="M188.598 64.1257C187.417 63.0629 187.653 59.0476 188.834 59.0476 189.425 59.0476 190.488 59.8743 191.314 60.819 193.322 63.299 190.842 66.4876 188.598 64.1257Z" fill="#9C6644" transform="matrix(1 0 0 -1.00134 90.1476 487)"/><path d="M173.6 60.819C171.947 58.9295 173.01 56.6857 175.49 56.6857 177.261 56.6857 177.851 60.819 176.08 61.8819 175.49 62.2362 174.427 61.7638 173.6 60.819Z" fill="#9C6644" transform="matrix(1 0 0 -1.00134 90.1476 487)"/><path d="M180.686 57.2762C180.686 53.7333 182.457 53.379 184.229 56.5676 185.882 59.7562 185.764 60.2286 183.048 60.2286 181.276 60.2286 180.686 59.4019 180.686 57.2762Z" fill="#9C6644" transform="matrix(1 0 0 -1.00134 90.1476 487)"/><path d="M214.933 40.5067C211.39 40.2705 207.966 39.5619 207.375 38.9714 206.785 38.381 208.084 36.1371 210.564 33.6571 213.989 30.2324 215.17 29.6419 217.531 30.5867 220.602 31.6495 224.971 38.2629 223.79 40.1524 223.436 40.7429 222.728 41.2152 222.255 41.0971 221.783 40.979 218.476 40.7429 214.933 40.5067Z" fill="#9C6644" transform="matrix(1 0 0 -1.00134 90.1476 487)"/><path d="M224.381 32.0038C224.381 29.8781 226.389 27.5162 227.333 28.461 228.75 30.1143 228.278 33.6571 226.507 34.0114 224.971 34.2476 224.381 33.6571 224.381 32.0038Z" fill="#9C6644" transform="matrix(1 0 0 -1.00134 90.1476 487)"/><path d="M205.25 31.1771C203.95 29.9962 205.604 27.1619 207.493 27.1619 208.438 27.1619 209.029 27.9886 208.792 29.1695 208.438 31.2952 206.43 32.3581 205.25 31.1771Z" fill="#9C6644" transform="matrix(1 0 0 -1.00134 90.1476 487)"/><path d="M218.83 26.4533C218.004 24.3276 220.13 21.8476 221.901 22.9105 223.909 24.2095 223.436 28.3429 221.429 28.3429 220.366 28.3429 219.303 27.5162 218.83 26.4533Z" fill="#9C6644" transform="matrix(1 0 0 -1.00134 90.1476 487)"/><path d="M164.743 25.0362C158.72 22.5562 157.067 21.3752 157.067 19.9581 157.067 18.659 164.152 14.1714 166.278 14.1714 169.112 14.1714 172.419 18.8952 172.419 23.0286 172.419 27.7524 171.592 27.9886 164.743 25.0362Z" fill="#9C6644" transform="matrix(1 0 0 -1.00134 90.1476 487)"/><path d="M211.39 24.9181C211.39 23.501 211.627 22.4381 211.863 22.4381 212.099 22.4381 213.28 22.0838 214.343 21.7295 215.878 21.139 216.232 21.4933 215.878 23.7371 215.406 27.3981 211.39 28.3429 211.39 24.9181Z" fill="#9C6644" transform="matrix(1 0 0 -1.00134 90.1476 487)"/><path d="M175.371 21.2571C174.19 19.3676 177.261 16.179 178.678 17.5962 179.977 18.8952 178.914 22.4381 177.261 22.4381 176.67 22.4381 175.726 21.8476 175.371 21.2571Z" fill="#9C6644" transform="matrix(1 0 0 -1.00134 90.1476 487)"/><path d="M172.891 13.581C172.419 12.6362 172.537 10.8648 173.01 9.8019 173.718 7.79429 173.836 7.79429 175.371 9.8019 177.025 12.0457 176.552 15.3524 174.663 15.3524 174.072 15.3524 173.246 14.5257 172.891 13.581Z" fill="#9C6644" transform="matrix(1 0 0 -1.00134 90.1476 487)"/><path d="M157.657 13.1086C156.712 11.3371 158.011 9.44762 160.137 9.44762 161.2 9.44762 161.79 10.2743 161.554 11.4552 161.082 13.8171 158.72 14.7619 157.657 13.1086Z" fill="#9C6644" transform="matrix(1 0 0 -1.00134 90.1476 487)"/><path d="M165.57 9.21143C165.806 7.79429 166.75 6.49524 167.695 6.49524 170.293 6.49524 169.939 11.101 167.341 11.5733 165.57 11.9276 165.215 11.4552 165.57 9.21143Z" fill="#9C6644" transform="matrix(1 0 0 -1.00134 90.1476 487)"/></g></g></g></g></svg>