<svg width="2133.33" height="1762.67" viewBox="0 0 1600 1322" xmlns="http://www.w3.org/2000/svg" xmlns:xlink="http://www.w3.org/1999/xlink" overflow="hidden"><style>
.MsftOfcResponsive_Fill_f8ebc8 {
 fill:#F8EBC8; 
}
</style>
<g transform="matrix(0.1 0 0 -0.1 0 1322)"><path d="M7595 12390C7413 12352 7394 12347 7342 12329 7313 12318 7281 12310 7272 12310 7262 12310 7239 12297 7220 12280 7201 12264 7178 12251 7169 12250 7148 12250 7011 12108 6972 12046 6937 11992 6912 11972 6830 11933 6608 11829 6293 11742 6104 11731 6003 11725 5979 11721 5957 11703 5942 11691 5912 11679 5890 11675 5816 11663 5853 11619 5931 11626 5951 11628 5989 11641 6016 11655 6058 11678 6073 11681 6119 11676 6184 11668 6206 11657 6213 11629 6218 11612 6210 11599 6184 11575 6155 11548 6151 11539 6156 11514 6161 11489 6158 11482 6136 11472 6122 11466 6110 11455 6110 11447 6110 11428 6014 11358 5993 11362 5972 11366 5890 11507 5890 11539 5890 11544 5874 11562 5854 11579 5826 11605 5815 11609 5804 11599 5784 11583 5786 11569 5815 11530 5829 11511 5845 11479 5850 11459 5856 11439 5873 11409 5890 11392 5917 11363 5920 11354 5920 11295 5920 11227 5947 11131 5975 11100 5993 11081 5995 11029 5979 11013 5965 10999 5986 10907 6012 10868 6022 10854 6030 10834 6030 10824 6030 10796 6118 10720 6150 10720 6173 10720 6192 10705 6241 10650L6304 10580 6360 10580C6426 10580 6591 10552 6605 10539 6619 10525 6630 10528 6630 10545 6630 10567 6643 10563 6670 10535 6685 10519 6704 10510 6723 10510 6740 10510 6762 10503 6772 10494 6785 10481 6793 10480 6803 10489 6814 10498 6820 10497 6829 10486 6836 10478 6865 10463 6893 10454 6922 10445 6965 10427 6990 10415 7036 10392 7170 10360 7220 10360 7235 10360 7277 10371 7312 10384 7410 10421 7524 10441 7641 10442 7764 10443 7810 10430 7810 10395 7810 10377 7794 10365 7718 10330 7572 10262 7465 10230 7225 10181 7168 10169 6934 10140 6845 10134 6788 10130 6707 10120 6560 10100 6524 10095 6456 10088 6408 10084 6310 10077 6304 10071 6342 10020 6366 9987 6387 9979 6368 10010 6348 10041 6370 10047 6395 10018 6408 10002 6426 9990 6434 9990 6443 9990 6465 9981 6485 9970 6505 9959 6536 9950 6555 9950 6573 9950 6592 9946 6595 9940 6598 9935 6609 9930 6619 9930 6629 9930 6645 9921 6654 9911 6669 9895 6676 9893 6690 9902 6704 9911 6711 9910 6723 9898 6732 9889 6756 9879 6777 9875 6798 9871 6820 9865 6825 9860 6837 9851 6955 9830 6998 9830 7018 9830 7037 9822 7047 9810 7059 9796 7067 9794 7077 9801 7086 9809 7103 9807 7137 9795 7164 9786 7212 9775 7244 9770 7280 9764 7307 9755 7312 9746 7318 9736 7335 9730 7360 9730 7416 9730 7447 9715 7512 9659 7557 9620 7576 9610 7605 9610 7658 9610 7670 9576 7665 9435 7657 9201 7646 9125 7616 9082 7592 9047 7590 9038 7598 9006 7604 8987 7607 8963 7605 8953 7603 8943 7599 8897 7596 8850 7590 8744 7555 8536 7531 8461 7520 8430 7507 8369 7500 8325 7486 8233 7476 8208 7455 8216 7445 8220 7437 8213 7430 8195 7424 8180 7411 8156 7400 8142 7386 8125 7380 8102 7380 8068 7380 8041 7373 8005 7363 7987 7337 7936 7322 7845 7314 7695 7310 7609 7302 7544 7294 7526 7276 7488 7276 7430 7294 7430 7317 7430 7328 7381 7334 7260 7337 7190 7347 7120 7358 7080 7369 7044 7381 6997 7384 6974 7387 6952 7398 6906 7409 6873 7420 6839 7433 6787 7439 6758 7444 6729 7458 6687 7469 6665 7481 6644 7490 6612 7490 6595 7490 6578 7497 6554 7506 6541 7522 6519 7522 6517 7506 6508 7490 6499 7490 6497 7509 6476 7521 6463 7535 6429 7541 6394 7547 6362 7560 6320 7571 6302 7581 6284 7590 6262 7590 6253 7590 6244 7597 6229 7606 6219 7615 6209 7629 6164 7636 6118 7646 6065 7658 6028 7670 6015 7686 5998 7690 5979 7690 5921 7690 5812 7704 5768 7751 5734 7795 5701 7803 5679 7819 5558 7846 5352 7851 5304 7871 5105 7876 5050 7885 4962 7890 4910 7896 4858 7903 4770 7906 4715 7912 4622 7911 4614 7891 4596 7865 4572 7860 4483 7885 4474 7898 4469 7900 4436 7899 4261 7899 4040 7886 3772 7870 3650 7865 3609 7857 3541 7854 3500 7851 3459 7845 3400 7840 3370 7836 3340 7831 3266 7831 3206 7830 3146 7827 3094 7826 3091 7824 3088 7819 3024 7816 2950 7803 2666 7782 2308 7776 2275 7774 2264 7772 2241 7771 2224 7769 2178 7727 2127 7439 1822 7298 1673 7169 1531 7152 1505 7136 1480 7116 1436 7109 1407 7102 1378 7088 1343 7077 1328 7058 1302 7058 1302 7078 1272 7105 1234 7184 1170 7204 1170 7212 1170 7222 1165 7226 1159 7240 1136 7713 1172 7790 1201 7804 1207 7830 1231 7849 1255 7867 1280 7894 1306 7908 1313 7944 1330 8083 1490 8108 1542 8119 1566 8135 1592 8144 1599 8166 1618 8178 1667 8200 1837 8240 2151 8254 2214 8344 2525 8398 2708 8424 2853 8440 3060 8457 3277 8476 3386 8510 3455 8526 3489 8542 3531 8546 3550 8553 3592 8575 3643 8654 3799 8711 3913 8752 3970 8776 3970 8806 3970 8938 3785 8932 3752 8930 3745 8936 3730 8945 3718 8975 3674 8962 3566 8875 3160 8808 2846 8773 2615 8745 2300 8736 2204 8725 2105 8720 2080 8700 1982 8693 1953 8677 1910 8669 1885 8650 1824 8636 1774 8608 1672 8533 1473 8514 1450 8508 1442 8490 1406 8475 1370 8460 1334 8425 1261 8398 1206 8338 1087 8266 920 8251 865 8238 816 8237 713 8249 705 8254 702 8266 674 8275 642 8294 575 8330 534 8379 520 8438 503 8610 497 8690 509 8731 514 8815 535 8876 554 8937 574 8995 591 9006 593 9040 599 9094 634 9137 677 9210 751 9231 876 9205 1084 9188 1221 9190 1246 9221 1306 9231 1327 9240 1352 9240 1362 9240 1371 9248 1383 9257 1388 9269 1395 9276 1418 9281 1471 9286 1521 9296 1561 9314 1594 9328 1621 9340 1648 9340 1655 9340 1661 9351 1677 9365 1690 9385 1708 9390 1723 9390 1760 9390 1793 9397 1815 9415 1840 9429 1859 9440 1881 9440 1890 9440 1899 9454 1946 9470 1995 9487 2044 9500 2096 9500 2112 9500 2127 9504 2140 9510 2140 9529 2140 9558 2217 9605 2395 9632 2494 9667 2602 9683 2635 9713 2694 9855 2850 9879 2850 9885 2850 9901 2832 9914 2811 9928 2789 9944 2769 9950 2765 9957 2760 9955 2754 9944 2745 9927 2733 9927 2731 9943 2716 9952 2706 9963 2687 9966 2672 9969 2657 9973 2634 9976 2622 9979 2609 9983 2566 9987 2527 9990 2487 9997 2447 10002 2437 10015 2413 10010 2245 9995 2186 9975 2111 9926 2069 9812 2031 9760 2014 9710 2000 9700 2000 9671 2000 9635 1964 9591 1890 9557 1834 9543 1818 9519 1813 9494 1808 9490 1803 9490 1773 9490 1737 9468 1686 9447 1673 9423 1658 9390 1607 9390 1586 9390 1574 9381 1554 9370 1542 9343 1514 9328 1472 9335 1449 9344 1421 9443 1422 9489 1451 9513 1465 9544 1473 9595 1475 9689 1479 9791 1504 10085 1595 10129 1608 10234 1633 10319 1650 10553 1696 10890 1704 10944 1665 10962 1651 10962 1649 10946 1625 10937 1611 10905 1584 10876 1565 10819 1529 10810 1512 10810 1439 10810 1396 10807 1391 10776 1376 10740 1359 10740 1359 10703 1260 10660 1144 10650 1101 10661 1073 10672 1043 10708 1011 10732 1010 10741 1010 10750 1006 10752 1002 10756 993 10845 962 10910 947 10972 933 11244 929 11305 941 11403 960 11605 1012 11630 1023 11644 1030 11678 1048 11705 1064 11765 1099 11807 1123 11858 1151 11878 1163 11907 1181 11922 1191 11936 1202 11955 1210 11962 1210 11970 1210 11985 1219 11995 1230 12005 1241 12021 1250 12032 1250 12042 1250 12050 1257 12050 1265 12050 1285 12151 1379 12193 1399 12232 1418 12450 1632 12450 1652 12450 1684 12564 1821 12611 1845 12649 1865 12772 1877 13060 1890 13564 1911 13661 1924 13806 1990 13977 2067 14121 2215 14327 2525 14374 2597 14450 2702 14495 2760 14752 3090 14873 3263 14970 3440 15004 3503 15045 3575 15060 3600 15074 3625 15092 3661 15098 3678 15104 3696 15118 3723 15130 3737 15141 3751 15150 3768 15150 3775 15150 3781 15157 3802 15167 3820 15176 3838 15189 3882 15197 3917 15211 3985 15211 3983 15154 4082 15136 4112 15087 4160 15074 4160 15068 4160 15043 4135 15020 4105 14996 4074 14972 4046 14966 4042 14959 4038 14942 4015 14928 3989 14913 3964 14862 3900 14814 3846 14721 3742 14260 3320 14127 3217 14026 3139 13991 3105 13960 3050 13946 3027 13904 2982 13865 2952 13827 2921 13777 2880 13755 2860 13713 2822 13586 2756 13535 2746 13519 2742 13492 2733 13475 2726 13382 2683 13147 2638 13104 2654 13090 2659 13091 2663 13114 2681 13128 2692 13140 2708 13140 2717 13140 2726 13150 2749 13163 2769 13185 2805 13185 2808 13185 3190L13185 3575 13157 3603C13132 3627 13129 3635 13135 3675 13142 3716 13140 3721 13111 3748 13085 3772 13081 3781 13086 3807 13091 3835 13089 3840 13060 3855 13031 3870 13028 3875 13033 3906 13038 3934 13034 3942 13013 3958 12996 3971 12985 3991 12979 4025 12970 4075 12955 4094 12932 4085 12908 4076 12899 4091 12915 4113 12931 4135 12935 4207 12922 4226 12918 4232 12908 4239 12899 4242 12888 4246 12880 4266 12875 4297 12867 4355 12851 4387 12815 4420 12770 4461 12734 4522 12721 4576 12712 4612 12698 4638 12673 4661 12634 4699 12610 4740 12610 4769 12610 4780 12597 4802 12580 4818 12564 4835 12550 4857 12550 4868 12550 4878 12540 4895 12528 4906 12499 4932 12450 5010 12450 5030 12450 5039 12441 5055 12431 5064 12421 5074 12409 5096 12406 5113 12403 5131 12389 5166 12375 5192 12361 5218 12350 5245 12350 5253 12350 5261 12333 5301 12311 5341 12272 5415 12252 5456 12227 5508 12220 5523 12209 5544 12203 5555 12197 5566 12175 5609 12155 5652 12136 5694 12113 5731 12105 5734 12097 5737 12088 5755 12085 5774 12081 5793 12067 5818 12054 5831 12041 5843 12030 5861 12030 5870 12030 5879 12021 5895 12010 5905 11999 5915 11985 5940 11980 5960 11974 5984 11963 6000 11950 6003 11936 6006 11930 6017 11930 6034 11930 6049 11918 6073 11900 6092 11884 6109 11870 6131 11870 6140 11870 6150 11863 6164 11854 6171 11845 6179 11829 6203 11818 6225 11800 6264 11771 6309 11731 6362 11719 6376 11710 6397 11710 6408 11710 6419 11703 6434 11694 6441 11685 6449 11669 6473 11658 6495 11613 6587 11592 6623 11578 6631 11569 6636 11559 6652 11556 6666 11552 6681 11538 6702 11524 6712 11511 6723 11500 6738 11500 6745 11500 6752 11489 6772 11475 6788 11461 6805 11450 6823 11450 6829 11450 6835 11439 6850 11426 6861 11413 6873 11399 6893 11396 6906 11392 6919 11381 6934 11370 6940 11360 6946 11344 6965 11335 6983 11327 7001 11297 7043 11270 7075 11243 7108 11188 7177 11149 7228 11110 7279 11042 7358 10999 7404 10956 7450 10920 7494 10920 7502 10920 7510 10908 7527 10894 7541 10880 7554 10841 7601 10808 7645 10775 7689 10741 7729 10734 7733 10726 7737 10713 7755 10704 7773 10694 7791 10667 7827 10644 7854 10620 7880 10600 7907 10600 7912 10600 7918 10588 7938 10573 7956 10557 7975 10533 8005 10518 8024 10502 8042 10490 8067 10490 8079 10490 8090 10481 8104 10470 8110 10460 8116 10448 8136 10444 8154 10441 8173 10427 8198 10414 8211 10398 8226 10390 8245 10390 8266 10390 8289 10383 8302 10365 8314 10351 8323 10340 8339 10340 8349 10340 8360 10329 8391 10315 8418 10301 8446 10290 8472 10290 8477 10290 8482 10277 8512 10260 8545 10244 8578 10230 8613 10230 8622 10230 8632 10219 8659 10205 8684 10191 8709 10180 8736 10180 8744 10180 8753 10165 8788 10146 8823 10128 8858 10099 8922 10082 8966 10065 9009 10033 9080 10011 9124 9988 9167 9970 9212 9970 9222 9970 9233 9959 9250 9946 9261 9933 9272 9920 9294 9917 9316 9914 9335 9900 9362 9886 9375 9870 9390 9863 9405 9867 9418 9870 9432 9862 9449 9841 9471 9824 9488 9810 9512 9810 9522 9810 9532 9799 9558 9785 9578 9771 9598 9760 9625 9760 9637 9760 9650 9750 9670 9738 9682 9717 9703 9683 9772 9658 9845 9653 9862 9637 9896 9624 9921 9611 9947 9600 9974 9600 9982 9600 9990 9592 10005 9581 10014 9571 10023 9557 10051 9550 10076 9543 10101 9529 10125 9519 10131 9495 10143 9493 10190 9517 10190 9526 10190 9542 10183 9552 10173 9562 10164 9573 10159 9576 10162 9579 10165 9585 10196 9590 10229 9602 10318 9627 10360 9751 10505 9929 10713 9996 10814 10045 10943 10074 11020 10077 11058 10055 11066 10047 11070 10032 11091 10022 11114 9989 11187 9882 11308 9600 11591 9169 12023 9124 12052 8821 12101 8781 12107 8733 12120 8716 12130 8699 12140 8672 12151 8655 12154 8606 12162 8577 12172 8545 12192 8529 12202 8507 12210 8497 12210 8487 12210 8470 12219 8458 12230 8439 12247 8436 12248 8425 12234 8415 12220 8413 12220 8401 12234 8393 12243 8378 12250 8366 12250 8355 12250 8330 12259 8312 12270 8294 12281 8273 12290 8265 12290 8256 12290 8242 12294 8232 12299 8190 12322 8098 12360 8073 12366 8057 12370 8040 12376 8035 12381 8019 12393 7961 12399 7815 12405 7711 12409 7667 12406 7595 12390ZM7886 11924C7918 11909 7922 11909 7939 11924 7962 11945 7962 11945 8006 11905 8027 11886 8050 11870 8057 11870 8089 11870 8056 11805 7987 11733L7937 11680 7749 11680C7592 11680 7559 11683 7546 11696 7537 11704 7530 11716 7530 11721 7530 11726 7515 11730 7496 11730 7455 11730 7395 11780 7384 11824 7378 11848 7383 11857 7421 11892 7455 11924 7468 11930 7481 11922 7490 11916 7501 11915 7506 11920 7520 11933 7563 11937 7713 11939 7823 11940 7859 11937 7886 11924ZM8570 11561C8580 11554 8586 11521 8590 11437 8596 11340 8600 11318 8618 11295 8630 11280 8640 11253 8640 11236 8640 11213 8646 11202 8663 11195 8681 11187 8686 11175 8691 11122 8696 11070 8702 11054 8724 11034 8745 11013 8750 11000 8750 10959 8750 10920 8756 10901 8774 10880 8790 10861 8800 10832 8805 10793 8810 10755 8820 10726 8836 10707 8854 10686 8860 10667 8860 10631 8860 10597 8866 10575 8881 10556 8892 10542 8905 10506 8909 10477 8918 10407 8924 10400 8971 10400 9006 10400 9010 10397 9010 10375L9010 10349 9130 10351C9248 10352 9252 10351 9275 10326 9290 10309 9310 10300 9328 10300 9363 10300 9388 10277 9368 10263 9361 10259 9273 10254 9172 10252L8989 10248 8935 10307C8878 10368 8865 10388 8856 10432 8853 10447 8841 10462 8830 10465 8815 10470 8810 10480 8810 10510 8810 10539 8804 10551 8785 10564 8763 10579 8760 10588 8760 10640 8760 10695 8758 10701 8729 10722 8700 10744 8699 10748 8705 10795 8710 10842 8709 10847 8680 10875 8653 10901 8650 10910 8650 10962 8650 11012 8647 11022 8625 11036 8605 11049 8600 11061 8600 11094 8600 11129 8596 11137 8569 11153 8538 11170 8537 11172 8544 11225 8550 11277 8549 11279 8519 11301L8487 11323 8492 11432C8496 11496 8503 11546 8510 11555 8524 11572 8548 11574 8570 11561Z" class="MsftOfcResponsive_Fill_f8ebc8" fill="#F8EBC8"/><path d="M5079 10203C5049 10169 5043 10142 4995 9813 4952 9522 4939 9467 4879 9345 4869 9323 4860 9297 4860 9288 4860 9278 4849 9263 4835 9254 4815 9241 4789 9239 4692 9241 4588 9245 4571 9248 4546 9268 4530 9280 4513 9290 4508 9290 4503 9290 4484 9305 4466 9324 4387 9402 4262 9448 4111 9452 4015 9455 4000 9441 4000 9350 4000 9313 4006 9247 4014 9204 4021 9160 4028 9114 4028 9100 4028 9086 4033 9050 4039 9020 4044 8990 4054 8918 4061 8860 4072 8764 4074 8757 4085 8784 4096 8810 4098 8804 4102 8719 4105 8667 4112 8614 4119 8602 4126 8589 4142 8505 4156 8414 4175 8282 4178 8244 4168 8227 4150 8193 4151 7801 4169 7767 4181 7744 4180 7739 4161 7714 4142 7690 4140 7675 4140 7551 4139 7382 4132 7364 4065 7342 4026 7328 4012 7318 3999 7291 3970 7229 3895 7186 3733 7139 3674 7121 3587 7092 3540 7074 3493 7056 3437 7038 3415 7035 3393 7031 3355 7017 3330 7005 3305 6992 3265 6977 3240 6970 3216 6963 3162 6941 3120 6920 3079 6900 3029 6877 3009 6871 2989 6865 2964 6850 2955 6840 2945 6829 2933 6820 2927 6820 2922 6820 2897 6805 2871 6787 2846 6768 2804 6741 2778 6726 2751 6711 2730 6695 2730 6691 2730 6686 2709 6670 2683 6655 2534 6567 2200 6221 2200 6153 2200 6143 2187 6113 2170 6087 2154 6061 2140 6036 2140 6032 2140 6028 2130 6020 2118 6015 2102 6008 2093 5993 2089 5969 2083 5931 2057 5891 2017 5860 2004 5849 1990 5826 1986 5808 1983 5791 1970 5766 1959 5754 1945 5739 1936 5714 1933 5683 1926 5609 1921 5590 1906 5590 1888 5590 1880 5568 1880 5520 1880 5495 1872 5472 1857 5453 1810 5393 1790 5360 1790 5340 1790 5297 1708 5008 1635 4790 1545 4524 1510 4394 1510 4323 1510 4284 1504 4265 1486 4243 1473 4228 1459 4200 1455 4182 1452 4164 1440 4145 1429 4140 1419 4134 1410 4120 1410 4109 1410 4093 1413 4091 1429 4100 1459 4116 1461 4113 1454 4073 1446 4026 1383 3955 1364 3971 1357 3977 1354 3995 1357 4018 1361 4051 1359 4057 1336 4068 1315 4077 1310 4087 1310 4114 1310 4137 1304 4152 1293 4159 1277 4167 1275 4184 1275 4282 1275 4412 1296 5023 1315 5440 1341 6025 1353 6172 1375 6207 1384 6220 1387 6240 1384 6258 1373 6312 1576 6759 1733 7025 1843 7212 2051 7516 2241 7767 2300 7845 2355 7921 2363 7937 2385 7979 2393 8059 2385 8155L2378 8240 2281 8240C2206 8240 2179 8236 2155 8222 2139 8212 2112 8200 2097 8196 2078 8192 1994 8115 1851 7972L1634 7755 1517 7520C1449 7383 1383 7263 1358 7233 1312 7178 1265 7118 1185 7014 1157 6979 1115 6910 1091 6862 1046 6772 1040 6759 1020 6700 1013 6681 1003 6654 998 6640 992 6626 984 6606 980 6595 976 6584 965 6557 956 6535 900 6408 880 6299 871 6073 865 5924 860 5887 847 5872 826 5849 826 5841 846 5819 860 5804 860 5799 846 5778 838 5765 827 5709 821 5650 814 5592 805 5505 800 5455 795 5406 786 5318 780 5260 774 5202 768 5137 766 5115 754 5007 748 4928 731 4635 720 4457 714 4388 703 4293 694 4205 693 3582 702 3520 707 3490 718 3400 725 3320 743 3143 776 2939 794 2895 804 2871 805 2859 797 2851 790 2844 791 2835 804 2821 815 2809 824 2778 827 2741 831 2705 839 2674 850 2663 859 2653 872 2630 878 2612 884 2594 898 2567 910 2553 921 2539 930 2521 930 2513 930 2505 941 2485 955 2468 969 2452 980 2428 980 2415 980 2402 990 2386 1005 2376 1019 2367 1030 2355 1030 2349 1030 2343 1043 2320 1059 2297 1075 2273 1095 2238 1103 2218 1111 2199 1123 2179 1129 2176 1135 2172 1140 2160 1140 2150 1140 2140 1150 2119 1163 2103 1175 2088 1192 2062 1200 2046 1214 2019 1245 1981 1449 1745 1538 1642 1642 1557 1750 1498 1834 1452 2043 1370 2075 1370 2087 1370 2100 1366 2106 1360 2128 1338 2972 1325 3525 1339 3762 1345 3964 1351 3975 1354 3987 1356 4023 1361 4055 1365 4088 1369 4144 1379 4180 1387 4216 1395 4351 1423 4480 1450 4995 1556 5130 1593 5176 1644 5199 1668 5210 1691 5215 1728 5223 1787 5216 1814 5184 1853 5168 1872 5160 1894 5160 1918 5160 1939 5150 1970 5137 1990L5115 2025 5112 2963 5110 3901 5086 3910C5056 3921 5051 3947 5058 4079L5063 4186 5031 4220C5002 4252 5000 4259 5005 4305 5011 4358 5007 4368 4975 4386 4959 4396 4955 4408 4955 4456 4955 4514 4954 4516 4903 4566 4858 4608 4850 4622 4850 4653 4850 4682 4845 4691 4823 4702 4801 4712 4795 4723 4793 4748 4792 4773 4779 4795 4741 4835 4714 4864 4688 4899 4685 4912 4678 4941 4698 4992 4732 5033L4756 5062 4808 5015C4859 4969 4900 4907 4900 4875 4900 4867 4907 4860 4915 4860 4934 4860 4950 4829 4950 4791 4950 4774 4954 4760 4959 4760 4981 4760 5000 4726 5000 4689 5000 4657 5004 4648 5025 4638 5049 4627 5050 4623 5050 4533 5050 4443 5051 4439 5074 4430 5096 4422 5099 4414 5105 4333 5110 4265 5117 4237 5136 4208 5158 4174 5160 4160 5160 4061 5160 3964 5162 3952 5178 3948 5207 3940 5210 3842 5210 3056 5210 2166 5216 1927 5241 1899 5251 1888 5262 1864 5266 1847 5275 1805 5322 1748 5369 1722 5403 1703 5423 1700 5532 1700 5669 1700 5702 1708 5770 1754 5795 1771 5835 1794 5860 1806 5925 1837 5990 1887 5990 1907 5990 1916 5980 1934 5968 1948 5949 1968 5947 1973 5960 1980 6012 2010 6012 2010 5986 2085 5930 2248 5920 2291 5930 2309 5937 2323 5936 2331 5926 2339 5919 2345 5907 2369 5899 2392 5889 2424 5875 2440 5839 2462 5785 2496 5776 2512 5760 2599 5751 2648 5751 2711 5760 2864 5771 3056 5781 3144 5815 3365 5823 3420 5835 3497 5841 3535 5847 3574 5855 3623 5860 3645 5865 3667 5874 3726 5880 3775 5886 3825 5895 3883 5900 3905 5905 3927 5914 3974 5920 4010 5942 4132 5956 4206 5990 4375 6001 4430 6030 4576 6055 4700 6080 4824 6122 5035 6149 5170 6292 5875 6306 6105 6235 6525 6221 6607 6210 6683 6210 6694 6210 6705 6200 6724 6188 6737L6167 6760 6195 6760 6224 6760 6192 6789C6168 6811 6160 6827 6160 6852 6160 6871 6155 6891 6150 6896 6144 6902 6133 6942 6125 6986 6102 7104 6108 7570 6133 7619 6142 7638 6150 7661 6150 7670 6150 7691 6186 7724 6290 7795 6441 7899 6599 8043 6724 8190 6745 8215 6796 8270 6838 8313 6912 8390 6913 8391 6907 8433 6901 8479 6906 8493 6932 8503 6970 8517 6969 8724 6931 8764 6919 8776 6907 8801 6903 8820 6900 8839 6887 8863 6874 8872 6862 8882 6849 8905 6846 8924 6840 8957 6836 8959 6782 8971 6751 8978 6709 8994 6690 9006 6671 9018 6639 9031 6620 9035 6601 9039 6575 9049 6563 9057 6551 9065 6536 9069 6531 9065 6525 9062 6510 9066 6498 9073 6485 9081 6457 9091 6435 9095 6413 9099 6378 9110 6356 9121 6334 9131 6311 9140 6304 9140 6297 9140 6285 9147 6277 9155 6269 9163 6249 9177 6233 9187 6164 9229 6115 9264 6111 9273 6104 9293 6037 9360 6007 9379 5971 9401 5856 9430 5806 9430 5789 9430 5769 9435 5763 9441 5758 9446 5725 9458 5690 9466 5627 9481 5530 9526 5530 9541 5530 9546 5519 9559 5506 9572 5479 9597 5370 9808 5370 9834 5370 9843 5366 9850 5360 9850 5348 9850 5290 9966 5262 10045 5235 10122 5205 10183 5186 10199 5178 10206 5154 10214 5133 10217 5104 10221 5091 10218 5079 10203ZM5896 9005C5909 8991 5930 8980 5944 8980 5974 8980 6068 8897 6095 8847L6114 8812 6076 8766C6028 8707 5979 8670 5949 8670 5920 8670 5906 8661 5897 8638 5889 8615 5844 8609 5705 8612L5585 8615 5582 8757 5579 8899 5642 8965 5704 9030 5789 9030C5865 9030 5875 9028 5896 9005Z" class="MsftOfcResponsive_Fill_f8ebc8" fill="#F8EBC8"/></g></svg>