<svg width="481.333" height="1456" viewBox="0 0 361 1092" xmlns="http://www.w3.org/2000/svg" xmlns:xlink="http://www.w3.org/1999/xlink" overflow="hidden"><g transform="matrix(0.1 0 0 -0.1 0 1092)"><path d="M1750 10428C1736 10417 1712 10403 1697 10398 1662 10385 1666 10370 1712 10346 1746 10327 1749 10327 1774 10343 1803 10362 1818 10405 1803 10428 1789 10451 1778 10451 1750 10428Z" fill="#9C6644"/><path d="M1832 10394C1834 10383 1843 10374 1854 10372 1867 10369 1871 10373 1868 10386 1866 10397 1857 10406 1846 10408 1833 10411 1829 10407 1832 10394Z" fill="#9C6644"/><path d="M1820 10330C1820 10319 1827 10307 1835 10303 1856 10295 1863 10304 1855 10329 1847 10356 1820 10356 1820 10330Z" fill="#9C6644"/><path d="M1692 10308C1698 10292 1728 10274 1736 10282 1739 10286 1740 10296 1737 10305 1730 10322 1686 10326 1692 10308Z" fill="#9C6644"/><path d="M1762 10293C1764 10283 1776 10274 1788 10272 1807 10269 1811 10273 1808 10287 1806 10297 1794 10306 1782 10308 1763 10311 1759 10307 1762 10293Z" fill="#9C6644"/><path d="M1500 10160C1492 10155 1471 10150 1453 10150 1408 10150 1404 10135 1439 10100 1472 10066 1495 10063 1528 10086 1556 10106 1560 10170 1533 10170 1523 10170 1508 10165 1500 10160Z" fill="#9C6644"/><path d="M1574 10106C1568 10089 1576 10070 1591 10070 1603 10070 1603 10107 1590 10115 1584 10118 1577 10114 1574 10106Z" fill="#9C6644"/><path d="M1412 10054C1414 10043 1423 10034 1434 10032 1447 10029 1451 10033 1448 10046 1446 10057 1437 10066 1426 10068 1413 10071 1409 10067 1412 10054Z" fill="#9C6644"/><path d="M1532 10038C1534 10026 1542 10015 1550 10015 1572 10015 1569 10054 1547 10058 1532 10061 1529 10057 1532 10038Z" fill="#9C6644"/><path d="M1472 10024C1474 10013 1483 10004 1494 10002 1507 9999 1511 10003 1508 10016 1506 10027 1497 10036 1486 10038 1473 10041 1469 10037 1472 10024Z" fill="#9C6644"/><path d="M1811 9974C1787 9961 1762 9949 1756 9947 1738 9940 1782 9901 1816 9894 1859 9886 1892 9918 1888 9963 1884 10002 1869 10005 1811 9974Z" fill="#9C6644"/><path d="M1910 9946C1910 9939 1917 9927 1925 9920 1937 9910 1941 9911 1946 9923 1949 9932 1949 9944 1945 9950 1936 9965 1910 9962 1910 9946Z" fill="#9C6644"/><path d="M1890 9881C1890 9871 1897 9857 1905 9850 1917 9840 1921 9841 1926 9854 1932 9870 1915 9900 1899 9900 1894 9900 1890 9892 1890 9881Z" fill="#9C6644"/><path d="M1767 9873C1757 9864 1780 9840 1797 9840 1807 9840 1810 9846 1806 9856 1803 9865 1800 9874 1800 9876 1800 9883 1774 9881 1767 9873Z" fill="#9C6644"/><path d="M1835 9860C1827 9847 1848 9820 1866 9820 1887 9820 1883 9848 1861 9860 1847 9867 1839 9867 1835 9860Z" fill="#9C6644"/><path d="M1630 9683C1572 9678 1563 9668 1584 9635 1615 9588 1664 9586 1697 9629 1716 9654 1713 9690 1693 9688 1683 9687 1655 9685 1630 9683Z" fill="#9C6644"/><path d="M1720 9605C1720 9578 1729 9573 1747 9591 1761 9605 1753 9630 1734 9630 1726 9630 1720 9620 1720 9605Z" fill="#9C6644"/><path d="M1555 9600C1545 9584 1571 9557 1583 9569 1594 9580 1585 9610 1571 9610 1566 9610 1558 9605 1555 9600Z" fill="#9C6644"/><path d="M1673 9564C1665 9543 1686 9522 1701 9537 1714 9550 1706 9580 1690 9580 1684 9580 1677 9573 1673 9564Z" fill="#9C6644"/><path d="M1612 9548C1614 9536 1623 9524 1633 9522 1647 9519 1651 9523 1648 9542 1646 9554 1637 9566 1627 9568 1613 9571 1609 9567 1612 9548Z" fill="#9C6644"/><path d="M1975 9480C1964 9475 1943 9471 1928 9471 1894 9470 1893 9459 1923 9424 1965 9375 2040 9402 2040 9466 2040 9492 2015 9497 1975 9480Z" fill="#9C6644"/><path d="M2060 9420C2060 9409 2067 9400 2075 9400 2083 9400 2090 9409 2090 9420 2090 9431 2083 9440 2075 9440 2067 9440 2060 9431 2060 9420Z" fill="#9C6644"/><path d="M1902 9379C1903 9367 1911 9355 1918 9352 1927 9349 1931 9355 1928 9371 1927 9383 1919 9395 1912 9398 1903 9401 1899 9395 1902 9379Z" fill="#9C6644"/><path d="M2024 9375C2020 9367 2021 9352 2024 9343 2030 9328 2032 9328 2047 9342 2063 9359 2059 9390 2040 9390 2034 9390 2027 9383 2024 9375Z" fill="#9C6644"/><path d="M1960 9351C1960 9331 1985 9316 2001 9326 2014 9334 1992 9370 1975 9370 1967 9370 1960 9361 1960 9351Z" fill="#9C6644"/><path d="M1605 9250C1593 9230 1621 9169 1647 9159 1686 9144 1740 9180 1740 9221 1740 9226 1729 9230 1715 9230 1701 9230 1673 9237 1653 9245 1611 9263 1613 9263 1605 9250Z" fill="#9C6644"/><path d="M1557 9187C1554 9179 1556 9167 1561 9159 1569 9147 1571 9147 1580 9160 1585 9168 1590 9181 1590 9188 1590 9204 1563 9204 1557 9187Z" fill="#9C6644"/><path d="M1715 9139C1707 9114 1712 9108 1734 9116 1754 9124 1755 9160 1736 9160 1728 9160 1718 9151 1715 9139Z" fill="#9C6644"/><path d="M1597 9143C1584 9131 1590 9100 1604 9100 1620 9100 1629 9119 1622 9138 1617 9151 1607 9154 1597 9143Z" fill="#9C6644"/><path d="M1657 9123C1647 9114 1648 9080 1658 9080 1670 9080 1690 9103 1690 9117 1690 9131 1668 9135 1657 9123Z" fill="#9C6644"/><path d="M1860 8912C1860 8902 1873 8881 1889 8866 1926 8831 1962 8836 1985 8880 2009 8927 2005 8930 1930 8930 1869 8930 1860 8928 1860 8912Z" fill="#9C6644"/><path d="M1836 8861C1827 8847 1841 8819 1854 8823 1869 8828 1868 8862 1853 8867 1847 8869 1839 8867 1836 8861Z" fill="#9C6644"/><path d="M2000 8844C2000 8813 2023 8816 2028 8848 2030 8863 2026 8870 2016 8870 2005 8870 2000 8861 2000 8844Z" fill="#9C6644"/><path d="M1883 8804C1880 8795 1883 8784 1891 8779 1914 8765 1920 8768 1920 8795 1920 8823 1893 8830 1883 8804Z" fill="#9C6644"/><path d="M1946 8803C1935 8777 1959 8761 1975 8784 1983 8794 1987 8807 1984 8811 1975 8826 1953 8821 1946 8803Z" fill="#9C6644"/><path d="M1494 8776C1491 8762 1495 8739 1504 8721 1517 8697 1527 8690 1549 8690 1577 8690 1630 8723 1630 8740 1630 8745 1608 8756 1580 8765 1553 8774 1528 8786 1525 8791 1514 8807 1501 8801 1494 8776Z" fill="#9C6644"/><path d="M1447 8744C1436 8733 1439 8700 1450 8700 1465 8700 1474 8730 1463 8741 1458 8746 1451 8747 1447 8744Z" fill="#9C6644"/><path d="M1602 8678C1595 8671 1590 8658 1590 8648 1590 8632 1593 8631 1610 8640 1630 8651 1637 8675 1622 8684 1617 8687 1608 8684 1602 8678Z" fill="#9C6644"/><path d="M1465 8670C1457 8657 1479 8628 1491 8636 1496 8639 1500 8650 1500 8661 1500 8681 1476 8687 1465 8670Z" fill="#9C6644"/><path d="M1527 8653C1517 8643 1519 8610 1529 8610 1544 8610 1571 8641 1565 8651 1558 8662 1536 8663 1527 8653Z" fill="#9C6644"/><path d="M1745 8470C1734 8452 1751 8401 1773 8385 1804 8364 1824 8366 1860 8396 1884 8417 1888 8425 1879 8436 1873 8444 1856 8450 1841 8450 1827 8451 1804 8457 1790 8465 1760 8482 1753 8483 1745 8470Z" fill="#9C6644"/><path d="M1693 8404C1685 8382 1708 8361 1720 8380 1725 8388 1730 8401 1730 8408 1730 8425 1700 8423 1693 8404Z" fill="#9C6644"/><path d="M1320 8361C1320 8349 1327 8326 1335 8310 1355 8272 1397 8270 1436 8303 1473 8335 1463 8356 1408 8363 1385 8366 1355 8372 1343 8376 1324 8381 1320 8378 1320 8361Z" fill="#9C6644"/><path d="M1853 8355C1850 8346 1850 8337 1853 8333 1863 8323 1890 8339 1890 8355 1890 8375 1861 8375 1853 8355Z" fill="#9C6644"/><path d="M1730 8341C1730 8316 1749 8303 1761 8321 1773 8340 1767 8354 1747 8358 1736 8360 1730 8355 1730 8341Z" fill="#9C6644"/><path d="M1790 8325C1770 8301 1792 8284 1814 8305 1823 8314 1830 8326 1830 8331 1830 8345 1804 8341 1790 8325Z" fill="#9C6644"/><path d="M1277 8307C1270 8288 1285 8266 1299 8274 1315 8284 1313 8320 1296 8320 1288 8320 1280 8314 1277 8307Z" fill="#9C6644"/><path d="M1447 8283C1436 8273 1439 8240 1450 8240 1462 8240 1481 8275 1473 8284 1465 8292 1455 8292 1447 8283Z" fill="#9C6644"/><path d="M1316 8254C1309 8237 1325 8210 1342 8210 1355 8210 1348 8263 1334 8267 1328 8269 1320 8263 1316 8254Z" fill="#9C6644"/><path d="M1376 8233C1372 8224 1374 8212 1380 8206 1393 8193 1426 8223 1416 8239 1405 8255 1383 8252 1376 8233Z" fill="#9C6644"/><path d="M1485 8080C1474 8075 1450 8071 1432 8071 1404 8070 1399 8067 1402 8049 1404 8037 1417 8018 1432 8007 1469 7979 1507 7990 1526 8036 1547 8086 1533 8101 1485 8080Z" fill="#9C6644"/><path d="M1550 8011C1550 7983 1567 7976 1579 7998 1590 8019 1585 8030 1563 8030 1556 8030 1550 8021 1550 8011Z" fill="#9C6644"/><path d="M1385 7990C1378 7978 1397 7950 1412 7950 1425 7950 1418 7993 1403 7997 1397 7999 1389 7996 1385 7990Z" fill="#9C6644"/><path d="M1510 7965C1497 7949 1504 7930 1525 7930 1540 7930 1553 7957 1544 7971 1536 7984 1524 7982 1510 7965Z" fill="#9C6644"/><path d="M1446 7961C1437 7948 1449 7922 1466 7916 1486 7908 1495 7936 1480 7955 1466 7972 1454 7974 1446 7961Z" fill="#9C6644"/><path d="M1815 7910C1793 7899 1766 7889 1755 7885 1737 7880 1738 7877 1768 7850 1805 7816 1825 7813 1858 7836 1876 7848 1880 7860 1878 7888 1874 7931 1867 7934 1815 7910Z" fill="#9C6644"/><path d="M1906 7871C1899 7860 1909 7830 1920 7830 1931 7830 1941 7860 1934 7871 1931 7876 1925 7880 1920 7880 1915 7880 1909 7876 1906 7871Z" fill="#9C6644"/><path d="M1750 7801C1750 7781 1776 7765 1785 7780 1793 7793 1779 7820 1764 7820 1756 7820 1750 7811 1750 7801Z" fill="#9C6644"/><path d="M1874 7806C1867 7787 1877 7770 1896 7770 1906 7770 1910 7778 1908 7792 1904 7818 1882 7828 1874 7806Z" fill="#9C6644"/><path d="M1813 7784C1807 7768 1824 7750 1848 7750 1867 7750 1862 7778 1840 7790 1824 7799 1818 7798 1813 7784Z" fill="#9C6644"/><path d="M1470 7628C1470 7594 1506 7550 1534 7550 1556 7550 1610 7597 1610 7617 1610 7623 1591 7630 1568 7633 1544 7637 1513 7642 1498 7646 1473 7652 1470 7649 1470 7628Z" fill="#9C6644"/><path d="M1430 7564C1430 7533 1453 7536 1458 7568 1460 7583 1456 7590 1446 7590 1435 7590 1430 7581 1430 7564Z" fill="#9C6644"/><path d="M1597 7554C1583 7540 1590 7519 1608 7522 1617 7524 1625 7532 1625 7539 1625 7555 1607 7564 1597 7554Z" fill="#9C6644"/><path d="M1468 7528C1461 7509 1470 7490 1486 7490 1494 7490 1500 7500 1500 7515 1500 7541 1476 7550 1468 7528Z" fill="#9C6644"/><path d="M1537 7523C1533 7520 1530 7508 1530 7498 1530 7476 1556 7474 1564 7496 1574 7521 1554 7541 1537 7523Z" fill="#9C6644"/><path d="M1800 7353C1750 7347 1745 7337 1775 7301 1812 7258 1853 7258 1880 7303 1915 7360 1908 7365 1800 7353Z" fill="#9C6644"/><path d="M1900 7281C1900 7253 1917 7246 1929 7268 1940 7289 1935 7300 1913 7300 1906 7300 1900 7291 1900 7281Z" fill="#9C6644"/><path d="M1738 7274C1727 7264 1741 7240 1757 7240 1765 7240 1770 7247 1768 7257 1765 7275 1748 7284 1738 7274Z" fill="#9C6644"/><path d="M1853 7234C1846 7216 1864 7195 1879 7204 1896 7215 1892 7250 1875 7250 1866 7250 1857 7243 1853 7234Z" fill="#9C6644"/><path d="M1790 7221C1790 7209 1792 7200 1794 7200 1796 7200 1806 7197 1815 7194 1828 7189 1831 7192 1828 7211 1824 7242 1790 7250 1790 7221Z" fill="#9C6644"/><path d="M1889 6844C1881 6835 1860 6821 1843 6813 1801 6796 1801 6778 1845 6757 1905 6728 1948 6762 1938 6831 1934 6860 1908 6867 1889 6844Z" fill="#9C6644"/><path d="M1960 6811C1960 6799 1989 6776 1996 6783 2007 6793 1991 6820 1975 6820 1967 6820 1960 6816 1960 6811Z" fill="#9C6644"/><path d="M1952 6738C1954 6726 1963 6714 1973 6712 1987 6709 1991 6713 1988 6732 1986 6744 1977 6756 1967 6758 1953 6761 1949 6757 1952 6738Z" fill="#9C6644"/><path d="M1830 6721C1830 6699 1855 6682 1868 6694 1876 6702 1858 6732 1842 6738 1835 6740 1830 6732 1830 6721Z" fill="#9C6644"/><path d="M1894 6719C1884 6703 1916 6676 1936 6684 1952 6690 1952 6692 1935 6710 1915 6733 1904 6735 1894 6719Z" fill="#9C6644"/><path d="M1641 6574C1623 6566 1595 6560 1579 6560 1557 6560 1550 6555 1550 6540 1550 6518 1602 6480 1632 6480 1666 6480 1709 6567 1682 6584 1678 6586 1660 6582 1641 6574Z" fill="#9C6644"/><path d="M1706 6521C1697 6507 1711 6479 1724 6483 1739 6488 1738 6522 1723 6527 1717 6529 1709 6527 1706 6521Z" fill="#9C6644"/><path d="M1540 6472C1540 6462 1562 6440 1572 6440 1576 6440 1580 6449 1580 6460 1580 6473 1573 6480 1560 6480 1549 6480 1540 6476 1540 6472Z" fill="#9C6644"/><path d="M1667 6457C1660 6438 1675 6416 1689 6424 1705 6434 1703 6470 1686 6470 1678 6470 1670 6464 1667 6457Z" fill="#9C6644"/><path d="M1604 6445C1601 6437 1601 6426 1605 6420 1616 6403 1640 6409 1640 6429 1640 6452 1611 6465 1604 6445Z" fill="#9C6644"/><path d="M1931 6380 1877 6353 1898 6332C1929 6301 1965 6295 1996 6315 2017 6328 2021 6338 2018 6368 2014 6414 2001 6416 1931 6380Z" fill="#9C6644"/><path d="M2040 6358C2040 6342 2059 6320 2073 6320 2077 6320 2080 6330 2078 6342 2075 6367 2040 6381 2040 6358Z" fill="#9C6644"/><path d="M2025 6301C2016 6285 2040 6246 2052 6258 2064 6270 2059 6302 2043 6307 2037 6309 2029 6306 2025 6301Z" fill="#9C6644"/><path d="M1900 6276C1900 6262 1929 6245 1938 6254 1940 6257 1940 6266 1937 6275 1929 6294 1900 6295 1900 6276Z" fill="#9C6644"/><path d="M1970 6261C1970 6238 1999 6225 2014 6240 2022 6248 2020 6255 2006 6266 1979 6285 1970 6284 1970 6261Z" fill="#9C6644"/><path d="M1765 6093C1700 6087 1697 6084 1714 6051 1749 5984 1840 6003 1840 6077 1840 6093 1835 6099 1823 6098 1813 6097 1787 6095 1765 6093Z" fill="#9C6644"/><path d="M1850 6021C1850 6010 1854 5999 1859 5996 1871 5988 1893 6017 1885 6030 1874 6047 1850 6041 1850 6021Z" fill="#9C6644"/><path d="M1687 6014C1679 6005 1698 5970 1710 5970 1716 5970 1720 5981 1720 5995 1720 6018 1702 6029 1687 6014Z" fill="#9C6644"/><path d="M1803 5974C1796 5956 1814 5935 1829 5944 1846 5955 1842 5990 1825 5990 1816 5990 1807 5983 1803 5974Z" fill="#9C6644"/><path d="M1740 5968C1740 5952 1759 5930 1773 5930 1777 5930 1780 5940 1778 5952 1775 5977 1740 5991 1740 5968Z" fill="#9C6644"/><path d="M2095 5889C2031 5871 2024 5859 2062 5828 2088 5805 2133 5805 2153 5828 2170 5847 2176 5896 2163 5903 2158 5905 2128 5899 2095 5889Z" fill="#9C6644"/><path d="M2192 5833C2197 5808 2220 5805 2220 5829 2220 5841 2214 5850 2204 5850 2195 5850 2190 5843 2192 5833Z" fill="#9C6644"/><path d="M2030 5796C2030 5778 2056 5756 2064 5769 2073 5783 2060 5810 2044 5810 2036 5810 2030 5804 2030 5796Z" fill="#9C6644"/><path d="M2154 5785C2147 5767 2157 5750 2176 5750 2184 5750 2190 5760 2190 5775 2190 5802 2163 5810 2154 5785Z" fill="#9C6644"/><path d="M2090 5766C2090 5744 2119 5725 2132 5738 2140 5746 2140 5753 2130 5765 2114 5784 2090 5785 2090 5766Z" fill="#9C6644"/><path d="M1740 5643C1740 5609 1762 5574 1789 5567 1815 5561 1870 5595 1870 5618 1870 5630 1857 5639 1828 5647 1804 5653 1775 5661 1763 5665 1743 5671 1740 5669 1740 5643Z" fill="#9C6644"/><path d="M1694 5606C1686 5585 1697 5557 1710 5565 1715 5568 1720 5580 1720 5590 1720 5615 1702 5626 1694 5606Z" fill="#9C6644"/><path d="M1857 5564C1853 5560 1850 5548 1850 5538 1850 5522 1853 5521 1871 5530 1882 5536 1890 5546 1887 5553 1883 5567 1866 5573 1857 5564Z" fill="#9C6644"/><path d="M1727 5554C1711 5538 1720 5510 1741 5510 1756 5510 1761 5515 1758 5532 1755 5554 1739 5565 1727 5554Z" fill="#9C6644"/><path d="M1787 5533C1783 5530 1780 5518 1780 5508 1780 5480 1814 5489 1818 5518 1821 5539 1802 5549 1787 5533Z" fill="#9C6644"/><path d="M1990 5326C1990 5318 2003 5298 2020 5280 2043 5255 2054 5250 2072 5255 2105 5266 2117 5277 2129 5311L2139 5340 2064 5340C2007 5340 1990 5337 1990 5326Z" fill="#9C6644"/><path d="M1967 5267C1961 5252 1977 5230 1993 5230 2005 5230 1997 5273 1984 5277 1978 5279 1970 5274 1967 5267Z" fill="#9C6644"/><path d="M2130 5261C2130 5250 2134 5239 2139 5236 2151 5228 2173 5257 2165 5270 2154 5287 2130 5281 2130 5261Z" fill="#9C6644"/><path d="M2020 5211C2020 5189 2046 5175 2053 5193 2059 5211 2050 5230 2034 5230 2026 5230 2020 5221 2020 5211Z" fill="#9C6644"/><path d="M2080 5205C2080 5178 2089 5173 2108 5192 2126 5210 2122 5230 2100 5230 2085 5230 2080 5223 2080 5205Z" fill="#9C6644"/><path d="M1628 5193C1621 5110 1687 5069 1739 5124 1763 5149 1760 5170 1734 5170 1726 5170 1702 5179 1680 5190 1632 5214 1630 5214 1628 5193Z" fill="#9C6644"/><path d="M1577 5153C1573 5150 1570 5138 1570 5128 1570 5106 1596 5104 1604 5126 1614 5151 1594 5171 1577 5153Z" fill="#9C6644"/><path d="M1607 5094C1603 5090 1600 5078 1600 5068 1600 5048 1625 5043 1636 5061 1644 5074 1617 5104 1607 5094Z" fill="#9C6644"/><path d="M1732 5088C1714 5070 1717 5048 1738 5052 1747 5054 1756 5065 1758 5078 1762 5102 1751 5107 1732 5088Z" fill="#9C6644"/><path d="M1656 5054C1653 5045 1652 5034 1656 5029 1664 5016 1700 5038 1700 5055 1700 5075 1664 5074 1656 5054Z" fill="#9C6644"/><path d="M1880 4858C1880 4816 1896 4793 1931 4785 1952 4780 1965 4785 1991 4808 2010 4825 2022 4841 2019 4844 2016 4848 1991 4856 1964 4864 1937 4871 1907 4881 1898 4885 1883 4891 1880 4887 1880 4858Z" fill="#9C6644"/><path d="M1832 4808C1834 4795 1840 4785 1845 4785 1851 4785 1856 4795 1858 4808 1860 4823 1856 4830 1845 4830 1834 4830 1830 4823 1832 4808Z" fill="#9C6644"/><path d="M1455 4781C1447 4767 1458 4730 1478 4708 1499 4683 1534 4686 1566 4713 1601 4744 1593 4766 1543 4773 1522 4775 1495 4781 1484 4785 1471 4789 1459 4787 1455 4781Z" fill="#9C6644"/><path d="M1991 4772C1976 4745 1977 4740 1995 4740 2015 4740 2026 4768 2012 4782 2005 4789 1998 4786 1991 4772Z" fill="#9C6644"/><path d="M1862 4748C1864 4735 1872 4725 1880 4725 1888 4725 1896 4735 1898 4748 1901 4765 1896 4770 1880 4770 1864 4770 1859 4765 1862 4748Z" fill="#9C6644"/><path d="M1932 4748C1925 4741 1920 4730 1920 4723 1920 4705 1949 4707 1957 4726 1965 4747 1947 4763 1932 4748Z" fill="#9C6644"/><path d="M1412 4708C1414 4695 1420 4685 1425 4685 1431 4685 1436 4695 1438 4708 1440 4723 1436 4730 1425 4730 1414 4730 1410 4723 1412 4708Z" fill="#9C6644"/><path d="M1577 4693C1567 4684 1569 4650 1579 4650 1584 4650 1593 4657 1600 4665 1617 4686 1596 4713 1577 4693Z" fill="#9C6644"/><path d="M1454 4665C1447 4647 1456 4620 1469 4620 1482 4620 1491 4647 1484 4665 1480 4673 1474 4680 1469 4680 1464 4680 1457 4673 1454 4665Z" fill="#9C6644"/><path d="M1510 4635C1510 4608 1519 4603 1538 4622 1556 4640 1552 4660 1530 4660 1515 4660 1510 4653 1510 4635Z" fill="#9C6644"/><path d="M1628 4495C1625 4492 1603 4486 1580 4482 1527 4473 1520 4458 1556 4425 1591 4393 1623 4393 1649 4426 1676 4460 1677 4500 1652 4500 1642 4500 1631 4498 1628 4495Z" fill="#9C6644"/><path d="M1686 4441C1682 4435 1682 4420 1685 4409 1692 4389 1693 4389 1708 4404 1723 4419 1723 4421 1708 4436 1697 4447 1690 4448 1686 4441Z" fill="#9C6644"/><path d="M1523 4394C1515 4373 1536 4352 1551 4367 1564 4380 1556 4410 1540 4410 1534 4410 1527 4403 1523 4394Z" fill="#9C6644"/><path d="M1643 4374C1635 4353 1656 4332 1671 4347 1684 4360 1676 4390 1660 4390 1654 4390 1647 4383 1643 4374Z" fill="#9C6644"/><path d="M1584 4366C1578 4350 1595 4320 1611 4320 1626 4320 1621 4357 1605 4370 1593 4380 1589 4379 1584 4366Z" fill="#9C6644"/><path d="M1980 4330C1972 4324 1946 4315 1922 4309 1869 4295 1869 4274 1921 4246 1956 4227 1959 4227 1984 4243 2005 4257 2010 4268 2010 4300 2010 4342 2005 4346 1980 4330Z" fill="#9C6644"/><path d="M2042 4269C2043 4256 2050 4246 2055 4248 2070 4251 2067 4283 2052 4288 2043 4291 2039 4285 2042 4269Z" fill="#9C6644"/><path d="M1880 4218C1880 4202 1899 4180 1913 4180 1917 4180 1920 4190 1918 4202 1915 4227 1880 4241 1880 4218Z" fill="#9C6644"/><path d="M2008 4218C2001 4199 2010 4180 2026 4180 2034 4180 2040 4190 2040 4205 2040 4231 2016 4240 2008 4218Z" fill="#9C6644"/><path d="M1945 4200C1937 4187 1958 4160 1976 4160 1993 4160 1994 4182 1978 4198 1963 4213 1953 4213 1945 4200Z" fill="#9C6644"/><path d="M1607 4053C1604 4049 1607 4029 1614 4010 1629 3962 1669 3948 1708 3977 1723 3988 1736 4006 1738 4017 1741 4034 1734 4038 1698 4043 1674 4047 1645 4052 1634 4056 1622 4059 1610 4058 1607 4053Z" fill="#9C6644"/><path d="M1562 3978C1567 3946 1590 3943 1590 3974 1590 3991 1585 4000 1574 4000 1564 4000 1560 3993 1562 3978Z" fill="#9C6644"/><path d="M1731 3962C1716 3935 1717 3930 1735 3930 1755 3930 1766 3958 1752 3972 1745 3979 1738 3976 1731 3962Z" fill="#9C6644"/><path d="M1604 3936C1597 3917 1607 3900 1626 3900 1636 3900 1640 3908 1638 3922 1634 3948 1612 3958 1604 3936Z" fill="#9C6644"/><path d="M1672 3928C1654 3910 1657 3888 1678 3892 1687 3894 1696 3905 1698 3918 1702 3942 1691 3947 1672 3928Z" fill="#9C6644"/><path d="M1933 3763C1884 3758 1880 3746 1911 3706 1924 3689 1941 3680 1960 3680 1991 3680 2030 3719 2030 3751 2030 3771 2027 3771 1933 3763Z" fill="#9C6644"/><path d="M2036 3701C2029 3690 2039 3660 2050 3660 2058 3660 2070 3684 2070 3701 2070 3713 2043 3713 2036 3701Z" fill="#9C6644"/><path d="M1874 3686C1868 3669 1876 3650 1891 3650 1903 3650 1903 3687 1890 3695 1884 3698 1877 3694 1874 3686Z" fill="#9C6644"/><path d="M1990 3635C1990 3607 2014 3601 2024 3626 2032 3646 2023 3660 2004 3660 1996 3660 1990 3650 1990 3635Z" fill="#9C6644"/><path d="M1927 3643C1915 3632 1919 3621 1940 3610 1958 3601 1960 3602 1960 3625 1960 3649 1942 3659 1927 3643Z" fill="#9C6644"/><path d="M1960 3255C1953 3246 1932 3233 1913 3225 1874 3209 1872 3197 1902 3176 1956 3138 2013 3167 2008 3229 2005 3269 1982 3281 1960 3255Z" fill="#9C6644"/><path d="M2030 3222C2030 3212 2052 3190 2062 3190 2066 3190 2070 3199 2070 3210 2070 3223 2063 3230 2050 3230 2039 3230 2030 3226 2030 3222Z" fill="#9C6644"/><path d="M2020 3162C2020 3140 2033 3120 2047 3120 2068 3120 2059 3164 2038 3168 2028 3170 2020 3167 2020 3162Z" fill="#9C6644"/><path d="M1900 3131C1900 3109 1925 3092 1938 3104 1946 3112 1928 3142 1912 3148 1905 3150 1900 3142 1900 3131Z" fill="#9C6644"/><path d="M1967 3133C1955 3122 1959 3111 1981 3099 2010 3084 2027 3102 2005 3124 1987 3141 1977 3144 1967 3133Z" fill="#9C6644"/><path d="M1705 2985C1689 2977 1663 2971 1648 2970 1608 2970 1611 2935 1653 2910 1695 2884 1706 2885 1736 2915 1753 2932 1760 2949 1758 2967 1754 2999 1744 3002 1705 2985Z" fill="#9C6644"/><path d="M1776 2931C1767 2917 1781 2889 1794 2893 1809 2898 1808 2932 1793 2937 1787 2939 1779 2937 1776 2931Z" fill="#9C6644"/><path d="M1614 2889C1608 2878 1627 2850 1641 2850 1646 2850 1650 2859 1650 2869 1650 2890 1624 2905 1614 2889Z" fill="#9C6644"/><path d="M1737 2867C1730 2848 1745 2826 1759 2834 1775 2844 1773 2880 1756 2880 1748 2880 1740 2874 1737 2867Z" fill="#9C6644"/><path d="M1676 2861C1667 2847 1680 2820 1697 2820 1706 2820 1710 2828 1708 2842 1705 2865 1685 2877 1676 2861Z" fill="#9C6644"/><path d="M2001 2790 1948 2763 1970 2742C2002 2712 2038 2706 2067 2725 2087 2738 2091 2748 2088 2778 2084 2824 2071 2826 2001 2790Z" fill="#9C6644"/><path d="M2110 2768C2110 2752 2129 2730 2143 2730 2147 2730 2150 2740 2148 2752 2145 2777 2110 2791 2110 2768Z" fill="#9C6644"/><path d="M2096 2711C2087 2697 2100 2670 2117 2670 2126 2670 2130 2678 2128 2692 2125 2715 2105 2727 2096 2711Z" fill="#9C6644"/><path d="M1970 2686C1970 2672 1999 2655 2008 2664 2010 2667 2010 2676 2007 2685 1999 2704 1970 2705 1970 2686Z" fill="#9C6644"/><path d="M2040 2671C2040 2648 2069 2635 2084 2650 2092 2658 2090 2665 2076 2676 2049 2695 2040 2694 2040 2671Z" fill="#9C6644"/><path d="M1830 2503C1772 2497 1767 2493 1781 2468 1808 2418 1856 2406 1890 2440 1901 2451 1910 2471 1910 2485 1910 2511 1909 2512 1830 2503Z" fill="#9C6644"/><path d="M1920 2431C1920 2420 1924 2409 1929 2406 1941 2398 1963 2427 1955 2440 1944 2457 1920 2451 1920 2431Z" fill="#9C6644"/><path d="M1757 2424C1749 2415 1768 2380 1780 2380 1786 2380 1790 2391 1790 2405 1790 2428 1772 2439 1757 2424Z" fill="#9C6644"/><path d="M1814 2385C1808 2369 1826 2340 1841 2340 1846 2340 1850 2351 1850 2364 1850 2391 1822 2407 1814 2385Z" fill="#9C6644"/><path d="M1873 2384C1866 2366 1884 2345 1899 2354 1916 2365 1912 2400 1895 2400 1886 2400 1877 2393 1873 2384Z" fill="#9C6644"/><path d="M2170 2303C2145 2295 2119 2286 2111 2284 2100 2281 2104 2272 2125 2250 2175 2198 2240 2219 2240 2288 2240 2324 2235 2325 2170 2303Z" fill="#9C6644"/><path d="M2264 2256C2258 2239 2266 2220 2281 2220 2293 2220 2293 2257 2280 2265 2274 2268 2267 2264 2264 2256Z" fill="#9C6644"/><path d="M2100 2206C2100 2199 2107 2187 2115 2180 2127 2170 2131 2171 2136 2183 2139 2192 2139 2204 2135 2210 2126 2225 2100 2222 2100 2206Z" fill="#9C6644"/><path d="M2224 2195C2217 2177 2227 2160 2246 2160 2254 2160 2260 2170 2260 2185 2260 2212 2233 2220 2224 2195Z" fill="#9C6644"/><path d="M2160 2175C2160 2156 2196 2136 2205 2150 2213 2163 2192 2190 2174 2190 2166 2190 2160 2183 2160 2175Z" fill="#9C6644"/><path d="M1810 2053C1810 1990 1866 1959 1918 1996 1954 2021 1946 2045 1898 2057 1874 2063 1845 2071 1833 2075 1813 2081 1810 2079 1810 2053Z" fill="#9C6644"/><path d="M1764 2016C1756 1995 1767 1967 1780 1975 1785 1978 1790 1990 1790 2000 1790 2025 1772 2036 1764 2016Z" fill="#9C6644"/><path d="M1920 1960C1920 1945 1925 1940 1938 1942 1947 1944 1955 1952 1955 1960 1955 1968 1947 1976 1938 1978 1925 1980 1920 1975 1920 1960Z" fill="#9C6644"/><path d="M1794 1956C1787 1937 1797 1920 1816 1920 1826 1920 1830 1928 1828 1942 1824 1968 1802 1978 1794 1956Z" fill="#9C6644"/><path d="M1857 1943C1853 1940 1850 1928 1850 1918 1850 1890 1884 1899 1888 1928 1891 1949 1872 1959 1857 1943Z" fill="#9C6644"/><path d="M2069 1749C2057 1742 2058 1736 2072 1713 2107 1653 2160 1652 2192 1710 2201 1729 2209 1745 2207 1746 2198 1753 2080 1756 2069 1749Z" fill="#9C6644"/><path d="M2042 1669C2043 1656 2050 1646 2055 1648 2070 1651 2067 1683 2052 1688 2043 1691 2039 1685 2042 1669Z" fill="#9C6644"/><path d="M2200 1671C2200 1660 2204 1649 2209 1646 2221 1638 2243 1667 2235 1680 2224 1697 2200 1691 2200 1671Z" fill="#9C6644"/><path d="M2090 1620C2090 1605 2095 1600 2108 1602 2117 1604 2125 1612 2125 1620 2125 1628 2117 1636 2108 1638 2095 1640 2090 1635 2090 1620Z" fill="#9C6644"/><path d="M2150 1615C2150 1588 2159 1583 2178 1602 2196 1620 2192 1640 2170 1640 2155 1640 2150 1633 2150 1615Z" fill="#9C6644"/><path d="M1697 1598C1693 1585 1698 1563 1708 1545 1731 1506 1768 1501 1805 1533 1832 1556 1833 1580 1807 1580 1800 1580 1777 1589 1755 1600 1706 1625 1704 1625 1697 1598Z" fill="#9C6644"/><path d="M1647 1563C1643 1560 1640 1548 1640 1538 1640 1516 1666 1514 1674 1536 1684 1561 1664 1581 1647 1563Z" fill="#9C6644"/><path d="M1677 1503C1664 1491 1670 1460 1684 1460 1703 1460 1712 1474 1704 1494 1697 1511 1688 1514 1677 1503Z" fill="#9C6644"/><path d="M1802 1498C1784 1480 1787 1458 1808 1462 1817 1464 1826 1475 1828 1488 1832 1512 1821 1517 1802 1498Z" fill="#9C6644"/><path d="M1736 1474C1719 1457 1716 1447 1726 1437 1736 1427 1770 1449 1770 1465 1770 1487 1753 1492 1736 1474Z" fill="#9C6644"/><path d="M1950 1267C1950 1221 1970 1197 2009 1197 2037 1197 2090 1231 2090 1250 2090 1256 1970 1300 1955 1300 1952 1300 1950 1285 1950 1267Z" fill="#9C6644"/><path d="M1900 1220C1900 1209 1907 1200 1915 1200 1923 1200 1930 1209 1930 1220 1930 1231 1923 1240 1915 1240 1907 1240 1900 1231 1900 1220Z" fill="#9C6644"/><path d="M1524 1186C1514 1161 1552 1105 1581 1102 1611 1098 1660 1134 1660 1159 1660 1173 1650 1179 1618 1183 1594 1186 1565 1192 1553 1195 1537 1200 1528 1198 1524 1186Z" fill="#9C6644"/><path d="M2061 1182C2046 1155 2047 1150 2065 1150 2085 1150 2096 1178 2082 1192 2075 1199 2068 1196 2061 1182Z" fill="#9C6644"/><path d="M1930 1162C1930 1136 1941 1128 1957 1141 1977 1158 1973 1180 1950 1180 1937 1180 1930 1173 1930 1162Z" fill="#9C6644"/><path d="M2002 1158C1995 1151 1990 1140 1990 1133 1990 1115 2019 1117 2027 1136 2035 1157 2017 1173 2002 1158Z" fill="#9C6644"/><path d="M1482 1118C1484 1105 1490 1095 1495 1095 1501 1095 1506 1105 1508 1118 1510 1133 1506 1140 1495 1140 1484 1140 1480 1133 1482 1118Z" fill="#9C6644"/><path d="M1647 1103C1637 1094 1639 1060 1649 1060 1654 1060 1663 1067 1670 1075 1687 1096 1666 1123 1647 1103Z" fill="#9C6644"/><path d="M1522 1063C1525 1033 1545 1022 1553 1045 1562 1066 1551 1090 1533 1090 1523 1090 1520 1081 1522 1063Z" fill="#9C6644"/><path d="M1580 1045C1580 1018 1589 1013 1608 1032 1626 1050 1622 1070 1600 1070 1585 1070 1580 1063 1580 1045Z" fill="#9C6644"/><path d="M1698 905C1695 902 1673 896 1650 892 1597 883 1590 868 1626 835 1661 803 1693 803 1719 836 1746 870 1747 910 1722 910 1712 910 1701 908 1698 905Z" fill="#9C6644"/><path d="M1756 851C1752 845 1752 830 1755 819 1762 799 1763 799 1778 814 1793 829 1793 831 1778 846 1767 857 1760 858 1756 851Z" fill="#9C6644"/><path d="M1593 804C1585 783 1606 762 1621 777 1634 790 1626 820 1610 820 1604 820 1597 813 1593 804Z" fill="#9C6644"/><path d="M1713 784C1705 763 1726 742 1741 757 1754 770 1746 800 1730 800 1724 800 1717 793 1713 784Z" fill="#9C6644"/><path d="M1654 776C1648 760 1665 730 1681 730 1696 730 1691 767 1675 780 1663 790 1659 789 1654 776Z" fill="#9C6644"/><path d="M2050 740C2042 734 2016 725 1992 719 1939 705 1939 684 1991 656 2026 637 2029 637 2054 653 2075 667 2080 678 2080 710 2080 752 2075 756 2050 740Z" fill="#9C6644"/><path d="M2112 679C2113 666 2120 656 2125 658 2140 661 2137 693 2122 698 2113 701 2109 695 2112 679Z" fill="#9C6644"/><path d="M1950 628C1950 612 1969 590 1983 590 1987 590 1990 600 1988 612 1985 637 1950 651 1950 628Z" fill="#9C6644"/><path d="M2078 628C2071 609 2080 590 2096 590 2104 590 2110 600 2110 615 2110 641 2086 650 2078 628Z" fill="#9C6644"/><path d="M2015 610C2007 597 2028 570 2046 570 2063 570 2064 592 2048 608 2033 623 2023 623 2015 610Z" fill="#9C6644"/><path d="M1677 463C1674 459 1677 439 1684 420 1699 372 1739 358 1778 387 1793 398 1806 416 1808 427 1811 444 1804 448 1768 453 1744 457 1715 462 1704 466 1692 469 1680 468 1677 463Z" fill="#9C6644"/><path d="M1632 388C1637 356 1660 353 1660 384 1660 401 1655 410 1644 410 1634 410 1630 403 1632 388Z" fill="#9C6644"/><path d="M1801 372C1786 345 1787 340 1805 340 1825 340 1836 368 1822 382 1815 389 1808 386 1801 372Z" fill="#9C6644"/><path d="M1674 346C1667 327 1677 310 1696 310 1706 310 1710 318 1708 332 1704 358 1682 368 1674 346Z" fill="#9C6644"/><path d="M1742 338C1724 320 1727 298 1748 302 1757 304 1766 315 1768 328 1772 352 1761 357 1742 338Z" fill="#9C6644"/><path d="M2003 173C1954 168 1950 156 1981 116 1994 99 2011 90 2030 90 2061 90 2100 129 2100 161 2100 181 2097 181 2003 173Z" fill="#9C6644"/><path d="M2106 111C2099 100 2109 70 2120 70 2128 70 2140 94 2140 111 2140 123 2113 123 2106 111Z" fill="#9C6644"/><path d="M1944 96C1938 79 1946 60 1961 60 1973 60 1973 97 1960 105 1954 108 1947 104 1944 96Z" fill="#9C6644"/><path d="M2060 45C2060 17 2084 11 2094 36 2102 56 2093 70 2074 70 2066 70 2060 60 2060 45Z" fill="#9C6644"/><path d="M1997 53C1985 42 1989 31 2010 20 2028 11 2030 12 2030 35 2030 59 2012 69 1997 53Z" fill="#9C6644"/></g></svg>