<svg width="154" height="157" xmlns="http://www.w3.org/2000/svg" xmlns:xlink="http://www.w3.org/1999/xlink" overflow="hidden"><defs><clipPath id="clip0"><rect x="563" y="60" width="154" height="157"/></clipPath><clipPath id="clip1"><rect x="564" y="61" width="152" height="155"/></clipPath><clipPath id="clip2"><rect x="564" y="61" width="152" height="156"/></clipPath></defs><g clip-path="url(#clip0)" transform="translate(-563 -60)"><g clip-path="url(#clip1)"><g clip-path="url(#clip2)"><path d="M353.121 645.839C327.857 644.116 304.373 628.269 292.89 605.301 283.703 586.985 282.956 562.984 290.937 544.323 299.55 524.17 315.397 509.585 335.953 502.753 339.226 501.662 343.13 500.571 344.681 500.399L347.379 499.997 347.379 525.605 347.379 551.214 337.905 551.214 328.431 551.214 328.431 561.836 328.431 572.458 337.905 572.458 347.379 572.458 347.379 583.081C347.379 594.851 347.839 598.067 350.423 603.464 353.581 610.182 359.609 614.833 367.418 616.67 370.576 617.417 387.572 617.187 390.328 616.326 391.591 615.981 391.591 615.809 391.591 606.852L391.591 597.722 385.792 597.722C378.844 597.722 375.916 596.976 373.505 594.507 371.036 592.038 370.347 588.937 370.347 579.98L370.347 572.458 380.682 572.458 391.017 572.458 390.73 571.195C390.558 570.449 389.926 566.372 389.295 562.123 388.663 557.874 387.974 553.682 387.802 552.821L387.457 551.214 378.902 551.214 370.347 551.214 370.347 525.605 370.347 499.997 373.103 500.399C377.754 501.088 386.481 504.131 392.338 507.116 411.802 517.107 425.755 534.964 430.693 556.266 432.358 563.501 432.76 577.339 431.554 584.516 429.028 599.043 422.367 612.421 412.434 622.986 397.103 639.293 375.974 647.446 353.121 645.839Z" fill="#EDE0D4" transform="matrix(1 0 0 -1.0013 68.6184 499.237)"/><path d="M132.865 645.035C105.994 640.556 82.8543 620.23 74.988 594.162 67.0069 567.865 73.9545 539.845 93.3044 520.495 122.071 491.728 168.522 491.728 197.231 520.495 211.241 534.447 218.763 552.649 218.763 572.458 218.763 604.268 198.781 632.116 168.752 642.164 165.479 643.312 160.311 644.575 157.326 645.092 150.722 646.126 139.239 646.126 132.865 645.035ZM170.589 614.488C178.455 611.904 184.427 605.876 187.183 597.78 188.274 594.507 188.331 592.956 188.331 572.803 188.331 553.395 188.216 550.984 187.24 547.826 185.231 541.338 181.097 536.17 175.125 532.667 169.958 529.682 167.489 529.395 145.268 529.395 133.612 529.395 123.793 529.682 122.358 530.026 113.516 532.036 105.994 539.041 103.295 547.826 102.319 550.984 102.204 553.281 102.204 572.343 102.204 588.363 102.434 594.105 103.008 596.344 105.305 605.072 112.252 612.192 120.578 614.603 125.458 615.981 125.918 615.981 146.99 615.866 165.651 615.751 167.029 615.694 170.589 614.488Z" fill="#EDE0D4" transform="matrix(1 0 0 -1.0013 68.6184 499.237)"/><path d="M122.415 606.392C116.616 604.383 112.023 599.215 110.817 593.416 110.415 591.349 110.243 583.77 110.358 570.908L110.53 551.501 112.425 547.654C114.434 543.519 116.961 541.108 121.21 539.156 123.564 538.122 125.057 538.007 145.325 538.007L166.914 538.007 170.417 539.787C174.264 541.682 176.159 543.577 178.455 547.998L180.006 550.926 180.006 572.458 180.006 593.99 178.398 597.263C176.675 600.823 173.632 603.866 169.843 605.876 167.431 607.196 167.029 607.196 146.416 607.311 127.238 607.483 125.171 607.368 122.415 606.392ZM170.474 599.732C175.125 597.378 173.345 590.258 168.12 590.258 163.929 590.258 161.574 594.794 163.986 598.182 165.594 600.478 167.948 601.052 170.474 599.732ZM153.019 592.497C164.56 588.191 170.13 574.985 165.02 563.903 163.067 559.597 158.589 555.118 154.225 553.108 151.239 551.788 149.976 551.501 145.555 551.501 140.847 551.501 140.043 551.673 136.54 553.395 121.784 560.688 120.119 580.726 133.554 590.028 135.162 591.119 137.631 592.382 139.009 592.842 142.914 594.047 149.287 593.933 153.019 592.497Z" fill="#EDE0D4" transform="matrix(1 0 0 -1.0013 68.6184 499.237)"/><path d="M142.684 585.722C135.334 583.827 130.684 576.248 132.578 569.243 135.392 558.85 148.828 555.75 155.775 563.903 162.838 572.114 157.727 584.803 146.875 585.951 145.497 586.066 143.66 585.951 142.684 585.722Z" fill="#EDE0D4" transform="matrix(1 0 0 -1.0013 68.6184 499.237)"/><path d="M559.884 645.035C557.242 644.575 552.362 643.312 549.032 642.221 534.677 637.398 522.849 628.843 513.662 616.67 503.901 603.694 498.963 588.822 498.963 572.458 498.963 552.649 506.485 534.447 520.495 520.495 549.204 491.728 595.655 491.728 624.422 520.495 643.771 539.845 650.719 567.865 642.738 594.162 635.848 616.9 617.244 635.561 594.392 642.738 584.344 645.896 570.506 646.815 559.884 645.035ZM588.306 616.842C590.602 606.22 597.32 599.215 607.368 596.918L610.641 596.172 610.813 588.65C610.986 579.75 611.158 579.98 605.129 581.013 599.502 581.932 595.368 583.942 591.406 587.731L587.961 591.004 587.961 571.482C587.961 560.745 587.731 550.524 587.387 548.859 584.746 534.505 569.932 524.055 555.692 526.409 543.692 528.419 534.333 537.605 532.208 549.491 530.198 560.917 536.17 573.147 546.39 578.602 550.41 580.784 555.577 582.219 559.08 582.219L561.549 582.219 561.549 575.214 561.549 568.152 558.735 568.037C551.73 567.807 545.931 561.664 545.874 554.372 545.816 546.103 551.788 540.132 560.113 540.132 565.798 540.189 570.506 543.175 573.492 548.572 574.353 550.18 574.468 553.51 574.64 584.401L574.812 618.393 581.358 618.393 587.961 618.393 588.306 616.842Z" fill="#EDE0D4" transform="matrix(1 0 0 -1.0013 68.6184 499.237)"/><path d="M132.865 431.439C118.339 429.028 103.984 421.564 93.3044 410.826 64.5379 382.117 64.5379 335.666 93.3044 306.9 112.654 287.55 140.674 280.602 166.972 288.583 189.709 295.473 208.255 313.962 215.547 336.987 219.854 350.537 219.854 367.131 215.547 380.797 207.164 407.439 184.599 427.018 157.153 431.497 150.722 432.53 139.181 432.53 132.865 431.439ZM174.895 385.275C179.719 382.806 182.647 379.189 184.025 374.079 184.829 371.208 184.944 368.337 184.771 357.428 184.599 345.37 184.484 343.992 183.393 341.58 181.613 337.733 178.398 334.46 174.666 332.623L171.393 331.015 144.406 331.015 117.42 331.015 114.147 332.623C109.611 334.862 106.511 338.537 105.018 343.418 103.984 346.92 103.869 348.47 104.042 360.413L104.214 373.562 106.109 377.352C108.635 382.519 112.941 385.849 118.453 386.998 119.774 387.228 132.119 387.457 145.899 387.4L170.934 387.285 174.895 385.275Z" fill="#EDE0D4" transform="matrix(1 0 0 -1.0013 68.6184 499.237)"/><path d="M135.392 369.715C134.473 369.198 134.358 368.05 134.358 358.576 134.358 348.068 134.358 347.954 135.679 347.666 137.401 347.207 158.589 357.37 158.129 358.404 157.9 359.093 137.746 370.347 136.827 370.347 136.54 370.347 135.909 370.059 135.392 369.715Z" fill="#EDE0D4" transform="matrix(1 0 0 -1.0013 68.6184 499.237)"/><path d="M346.518 431.439C331.475 428.798 317.637 421.621 306.9 410.826 292.258 396.185 284.736 377.064 285.54 356.337 286.114 341.465 289.732 330.039 297.828 317.924 311.263 297.655 334.345 285.368 358.863 285.368 390.558 285.368 418.578 305.464 428.569 335.322 441.488 374.021 420.817 415.707 382.347 428.569 379.074 429.717 373.906 430.98 370.921 431.497 364.26 432.53 352.719 432.53 346.518 431.439ZM338.594 394.462C341.695 393.084 343.36 390.443 343.36 386.998 343.36 381.773 339.8 378.615 334.345 379.074 330.786 379.361 328.317 381.313 327.226 384.529 325.56 389.582 329.752 395.266 335.322 395.553 335.781 395.553 337.274 395.094 338.594 394.462ZM385.218 372.873C389.237 371.725 392.682 368.28 394.175 364.031 395.151 361.217 395.323 358.863 395.496 343.819L395.668 326.709 388.491 326.709 381.256 326.709 381.256 339.972C381.256 354.155 380.797 357.428 378.672 359.437 376.777 361.217 372.873 361.562 370.059 360.241 366.155 358.404 365.753 356.738 365.753 340.661L365.753 326.709 358.289 326.709 350.824 326.709 350.824 349.676 350.824 372.643 358.002 372.643 365.179 372.643 365.179 369.945 365.179 367.246 367.361 369.37C371.552 373.447 378.615 374.883 385.218 372.873ZM342.212 349.676 342.212 326.709 335.034 326.709 327.857 326.709 327.857 349.676 327.857 372.643 335.034 372.643 342.212 372.643 342.212 349.676Z" fill="#EDE0D4" transform="matrix(1 0 0 -1.0013 68.6184 499.237)"/><path d="M559.884 431.439C540.189 428.109 522.16 416.224 510.791 399.056 499.02 381.256 495.748 357.485 502.178 336.929 509.356 314.077 528.017 295.473 550.754 288.583 577.052 280.602 605.072 287.55 624.422 306.9 653.188 335.666 653.188 382.117 624.422 410.826 613.512 421.736 599.33 429.085 584.344 431.497 577.856 432.53 566.372 432.53 559.884 431.439ZM581.415 402.443C591.119 401.123 599.56 396.701 606.507 389.352 617.417 377.696 620.804 362.021 615.751 346.805 611.33 333.714 600.019 323.206 586.239 319.474 580.612 317.924 570.621 318.039 564.822 319.704 562.353 320.393 559.309 321.484 558.046 322.173L555.75 323.321 544.553 320.335C538.409 318.728 533.242 317.522 533.069 317.694 532.897 317.809 534.103 322.919 535.768 328.948L538.696 339.972 537.261 343.245C534.39 349.676 533.758 352.949 533.701 360.586 533.701 366.5 533.931 368.509 535.079 372.069 540.074 388.146 552.362 399.285 568.324 402.156 573.894 403.19 575.903 403.247 581.415 402.443Z" fill="#EDE0D4" transform="matrix(1 0 0 -1.0013 68.6184 499.237)"/><path d="M567.578 393.658C558.219 391.362 549.836 384.644 545.472 376.031 542.831 370.863 541.854 366.614 541.854 360.586 541.854 354.27 542.429 351.686 545.299 345.485L547.424 341.006 545.874 335.149C545.07 331.991 544.496 329.235 544.61 329.12 544.725 328.948 547.481 329.58 550.639 330.441L556.439 332.049 560.86 329.982C566.544 327.34 569.243 326.766 575.903 326.709 585.722 326.709 592.612 329.522 599.502 336.413 608.23 345.14 611.675 356.796 608.919 368.567 606.163 380.28 596 390.5 584.114 393.601 580.21 394.634 571.597 394.634 567.578 393.658ZM564.133 379.419C565.855 378.615 569.013 372.701 569.013 370.174 569.013 369.198 568.382 367.591 567.52 366.5 565.568 363.973 565.913 362.825 569.817 358.518 572.745 355.246 578.602 351.399 580.669 351.399 581.128 351.399 582.162 352.432 583.023 353.695 585.148 356.853 586.64 357.083 591.177 354.844 593.186 353.868 595.311 352.432 595.77 351.686 598.354 347.724 592.555 341.638 586.181 341.638 583.827 341.638 578.774 343.303 574.468 345.542 567.233 349.332 558.793 358.691 556.094 365.925 554.199 370.978 555.979 377.179 559.998 379.189 562.238 380.28 562.295 380.28 564.133 379.419Z" fill="#EDE0D4" transform="matrix(1 0 0 -1.0013 68.6184 499.237)"/><path d="M133.784 217.902C119.028 215.605 103.582 207.624 93.0173 196.944 79.7537 183.508 72.6339 167.029 71.9448 148.081 71.141 126.722 78.3183 108.348 93.3044 93.3044 107.487 79.0647 125.057 71.7726 145.21 71.7726 164.675 71.7726 181.786 78.4905 195.796 91.6967 210.495 105.477 218.763 124.712 218.763 144.981 218.763 169.958 206.762 192.465 185.977 206.59 181.613 209.519 173.46 213.366 167.431 215.26 156.924 218.648 144.636 219.567 133.784 217.902ZM155.89 185.231C157.785 184.714 161.517 183.221 164.216 181.9 168.12 179.948 170.13 178.455 174.264 174.264 182.532 165.996 185.862 158.531 186.436 146.99 186.724 141.421 186.551 139.583 185.575 135.621 180.752 116.674 164.618 103.927 145.268 103.927 130.109 103.927 116.674 111.793 108.922 125.171 104.329 133.21 102.664 145.268 105.018 154.455 108.98 170.474 121.324 182.475 137.229 185.805 141.823 186.781 151.067 186.494 155.89 185.231Z" fill="#EDE0D4" transform="matrix(1 0 0 -1.0013 68.6184 499.237)"/><path d="M138.779 179.259C137.861 178.857 137.976 178.513 139.813 175.986 141.536 173.575 143.373 170.647 149.632 160.369L150.435 159.105 153.077 160.196C156.924 161.862 163.01 165.996 165.823 168.809L168.292 171.278 166.685 172.599C164.158 174.666 157.383 177.881 153.593 178.857 150.148 179.719 140.674 179.948 138.779 179.259Z" fill="#EDE0D4" transform="matrix(1 0 0 -1.0013 68.6184 499.237)"/><path d="M125.344 173.46C123.104 171.91 120.233 169.383 118.913 167.833 116.501 165.077 112.31 157.268 111.621 154.34L111.276 152.732 114.606 152.732C120.75 152.732 137 154.971 141.937 156.522 142.741 156.751 142.339 157.67 139.526 162.378 135.22 169.441 130.798 175.872 129.995 176.101 129.707 176.216 127.583 175.01 125.344 173.46Z" fill="#EDE0D4" transform="matrix(1 0 0 -1.0013 68.6184 499.237)"/><path d="M169.383 163.527C165.766 160.139 159.794 156.12 155.947 154.455L153.364 153.364 154.684 150.321 156.062 147.277 160.426 147.45C164.56 147.622 176.159 146.761 178.972 146.014 180.235 145.727 180.293 145.842 179.948 148.483 179.259 154.397 176.388 161.919 173.632 165.192L172.541 166.455 169.383 163.527Z" fill="#EDE0D4" transform="matrix(1 0 0 -1.0013 68.6184 499.237)"/><path d="M140.961 149.517C135.909 148.081 124.54 146.416 117.305 146.072L110.243 145.67 110.53 142.741C111.391 135.449 114.09 128.272 117.592 124.08L119.143 122.186 121.382 125.401C123.851 129.018 131.085 136.081 135.105 138.894 137.401 140.445 142.454 143.028 147.335 145.038 148.541 145.555 148.541 145.555 147.507 148.024 146.359 150.722 145.842 150.837 140.961 149.517Z" fill="#EDE0D4" transform="matrix(1 0 0 -1.0013 68.6184 499.237)"/><path d="M159.565 140.904C158.704 140.674 158.818 139.928 160.484 134.76 161.517 131.545 163.01 126.262 163.699 123.047 164.445 119.774 165.364 117.133 165.709 117.133 166.799 117.133 173.058 123.908 175.183 127.411 176.905 130.282 178.168 133.44 179.489 138.492 179.719 139.239 179.087 139.583 176.733 140.1 173.517 140.847 161.173 141.421 159.565 140.904Z" fill="#EDE0D4" transform="matrix(1 0 0 -1.0013 68.6184 499.237)"/><path d="M144.923 136.138C138.033 132.751 132.004 128.157 128.215 123.334 123.506 117.42 123.506 117.65 127.64 115.181 133.267 111.85 138.205 110.587 145.268 110.587 152.215 110.587 158.474 112.023 158.474 113.63 158.474 116.846 151.986 138.952 151.067 138.952 150.837 138.952 148.081 137.689 144.923 136.138Z" fill="#EDE0D4" transform="matrix(1 0 0 -1.0013 68.6184 499.237)"/><path d="M350.537 218.418C326.192 214.744 307.244 202.284 295.359 182.245 289.157 171.737 286.057 160.943 285.54 148.081 284.679 126.837 291.913 108.348 306.9 93.3044 321.024 79.0647 338.709 71.7152 358.633 71.7152 371.265 71.7152 381.773 74.1842 392.625 79.8111 413.008 90.3186 427.535 110.128 431.497 132.865 432.588 139.354 432.588 150.55 431.497 157.096 426.329 187.47 403.821 210.782 373.217 217.385 369.026 218.304 354.155 218.935 350.537 218.418ZM382.404 176.79C383.84 176.159 385.562 175.125 386.251 174.494 387.687 173.115 389.467 173.288 394.405 175.47 396.07 176.216 397.735 176.848 397.965 176.848 398.769 176.848 396.414 172.599 394.405 170.302L392.625 168.292 395.725 169.154C397.391 169.67 398.941 170.187 399.228 170.359 399.458 170.474 399.63 170.187 399.63 169.67 399.63 169.154 397.965 166.972 395.898 164.847 392.625 161.402 392.165 160.713 392.165 158.704 392.165 150.722 388.95 139.181 384.873 132.464 373.562 113.803 346.461 106.74 324.757 116.788 322.46 117.822 320.393 118.97 320.221 119.257 319.991 119.602 321.886 119.946 325.159 120.176 331.934 120.578 342.786 124.31 342.786 126.205 342.786 126.435 341.293 127.066 339.456 127.583 335.551 128.731 331.302 132.176 329.58 135.564 328.948 136.77 328.431 137.918 328.431 138.09 328.431 138.263 329.809 138.378 331.475 138.378L334.46 138.435 331.819 139.813C326.881 142.397 322.69 148.655 322.69 153.421 322.69 155.201 322.69 155.201 324.527 154.512 325.273 154.282 326.594 153.88 327.513 153.651L329.178 153.249 326.766 155.947C325.273 157.67 324.068 159.794 323.493 161.804 322.345 165.709 322.632 171.45 324.068 173.69L325.101 175.24 327.742 172.656C335.436 165.249 344.566 160.713 356.164 158.531L358.863 158.072 358.863 161.345C358.863 173.632 371.15 181.728 382.404 176.79Z" fill="#EDE0D4" transform="matrix(1 0 0 -1.0013 68.6184 499.237)"/><path d="M564.994 218.476C564.534 218.361 562.18 217.959 559.826 217.615 543.749 215.031 527.213 205.614 516.533 192.925 504.82 179.03 498.963 163.067 498.963 144.981 498.963 109.554 523.825 79.6389 558.965 72.8635 570.506 70.5668 584.975 71.6578 596.344 75.5048 614.144 81.6485 629.991 95.5437 638.432 112.425 647.504 130.569 648.365 154.225 640.556 173.001 631.082 195.853 611.503 212.045 586.813 217.385 582.908 218.189 567.176 219.05 564.994 218.476ZM583.655 186.207C594.392 183.566 602.775 175.814 605.876 165.766 606.909 162.378 607.024 160.828 606.737 155.086 606.163 142.684 602.029 133.727 594.105 127.698 586.066 121.669 574.468 121.324 568.669 126.951L566.774 128.789 566.2 126.549C563.501 115.985 562.582 112.941 561.377 110.128 559.482 105.822 554.142 98.0701 553.338 98.3572 552.477 98.5868 551.903 102.721 551.845 108.52 551.788 113.114 552.993 119.372 556.955 135.794L559.309 145.497 558.391 149.574C556.955 155.718 558.104 160.943 561.664 164.618 567.118 170.245 574.755 167.201 574.755 159.393 574.755 158.302 573.721 153.88 572.458 149.517 569.53 139.469 569.53 137.344 572.114 134.531 573.836 132.636 574.353 132.406 577.454 132.176 583.253 131.774 587.559 134.932 590.947 142.11 594.679 150.206 595.368 162.149 592.382 168.005 589.397 173.862 583.023 177.766 575.329 178.398 561.893 179.489 550.41 170.761 548.228 157.842 547.481 153.134 548.285 148.77 550.639 145.038 552.247 142.512 552.304 142.225 551.73 139.641 551.328 138.148 550.754 136.598 550.352 136.196 548.457 134.129 543.003 138.32 540.189 143.947 538.582 147.163 538.294 148.483 538.122 153.019 537.663 162.78 540.419 170.072 547.137 176.733 556.266 185.92 570.276 189.537 583.655 186.207Z" fill="#EDE0D4" transform="matrix(1 0 0 -1.0013 68.6184 499.237)"/></g></g></g></svg>